<mxfile host="app.diagrams.net" modified="2022-10-26T15:03:07.113Z" agent="5.0 (Windows NT 10.0; Win64; x64) AppleWebKit/537.36 (KHTML, like Gecko) Chrome/106.0.0.0 Safari/537.36" etag="YYaz19HJGMRYd0H05JKG" version="20.5.1" type="github">
  <diagram name="Page-1" id="Page-1">
    <mxGraphModel dx="1375" dy="694" grid="1" gridSize="10" guides="1" tooltips="1" connect="1" arrows="1" fold="1" page="1" pageScale="1" pageWidth="850" pageHeight="1100" math="0" shadow="0">
      <root>
        <mxCell id="0" />
        <mxCell id="1" parent="0" />
        <mxCell id="77" style="vsdxID=91;fillColor=#FFFFFF;gradientColor=none;shape=stencil(nZBLDoAgDERP0z3SIyDew0QUooIB/N1eSGM0Lli4m+m8tskAiqDbRQFnIXo3qt10UQPWwLmxWnkTkwKUgKJ3Xg3erbYjv7SZzGp2W75w0B7LG5yd5CpGviF0MvaF3uEvuID+BIvvi2gSTx3U5Dv7VpdGVDvKCw==);dashed=1;strokeColor=#000000;strokeWidth=4;spacingTop=-3;spacingBottom=-3;spacingLeft=-3;spacingRight=-3;points=[];labelBackgroundColor=none;rounded=0;html=1;whiteSpace=wrap;" parent="1" vertex="1">
          <mxGeometry x="436" y="690" width="712" height="210" as="geometry" />
        </mxCell>
        <mxCell id="140" style="vsdxID=179;fillColor=#FFFFFF;gradientColor=none;shape=stencil(UzV2Ls5ILEhVNTIoLinKz04tz0wpyVA1dlE1MsrMy0gtyiwBslSNXVWNndPyi1LTi/JL81Ig/IJEkEoQKze/DGRCBUSfAUiHkUElhGdoAOG7QZTmZOYhKYVJkqUYj1JjEz0LU9yKgQyE4yH+RpZD9yhQCBJIxq4A);strokeColor=#000000;strokeWidth=4;spacingTop=-3;spacingBottom=-3;spacingLeft=-3;spacingRight=-3;points=[];labelBackgroundColor=none;rounded=0;html=1;whiteSpace=wrap;" parent="1" vertex="1">
          <mxGeometry x="1561" y="1496" width="360" height="1127" as="geometry" />
        </mxCell>
        <mxCell id="142" style="vsdxID=181;fillColor=#FFFFFF;gradientColor=none;shape=stencil(nZBLDoAgDERP0z3SIyDew0QUooIB/N1eSGM0Lli4m+m8tskAiqDbRQFnIXo3qt10UQPWwLmxWnkTkwKUgKJ3Xg3erbYjv7SZzGp2W75w0B7LG5yd5CpGviF0MvaF3uEvuID+BIvvi2gSTx3U5Dv7VpdGVDvKCw==);dashed=1;strokeColor=#000000;strokeWidth=4;spacingTop=-3;spacingBottom=-3;spacingLeft=-3;spacingRight=-3;points=[];labelBackgroundColor=none;rounded=0;html=1;whiteSpace=wrap;" parent="1" vertex="1">
          <mxGeometry x="351.5" y="1598.5" width="1540" height="733" as="geometry" />
        </mxCell>
        <mxCell id="L_2v3AOTJTyac5hATxIp-189" value="" style="rounded=0;whiteSpace=wrap;html=1;dashed=1;fillColor=none;" vertex="1" parent="1">
          <mxGeometry x="916" y="948.75" width="845" height="219.5" as="geometry" />
        </mxCell>
        <mxCell id="3" value="&lt;div style=&quot;font-size: 1px&quot;&gt;&lt;/div&gt;" style="verticalAlign=middle;align=center;vsdxID=2;fillColor=none;gradientColor=none;strokeColor=none;spacingTop=-3;spacingBottom=-3;spacingLeft=-3;spacingRight=-3;points=[];labelBackgroundColor=none;rounded=0;html=1;whiteSpace=wrap;" parent="1" vertex="1">
          <mxGeometry x="794" y="361" width="1" height="25" as="geometry" />
        </mxCell>
        <mxCell id="7" value="&lt;div style=&quot;font-size: 1px&quot;&gt;&lt;/div&gt;" style="verticalAlign=middle;align=center;vsdxID=7;fillColor=none;gradientColor=none;strokeColor=none;spacingTop=-3;spacingBottom=-3;spacingLeft=-3;spacingRight=-3;points=[];labelBackgroundColor=none;rounded=0;html=1;whiteSpace=wrap;" parent="1" vertex="1">
          <mxGeometry x="767" y="391" width="1" height="25" as="geometry" />
        </mxCell>
        <mxCell id="8" style="vsdxID=8;fillColor=#ffffff;gradientColor=none;shape=stencil(jZA9DsMgDIVP47HImCFhTtN7RAopqBQiQv9uH5CHph2ibO/Zny37geoWO8wGCJec4s283JgtqDMQuWBNcrkoUD2oborJXFN8hJH9PFSyqnt81g1vnsM6QfhhJ5H9hVHvwgZttdDyON5o0dIPTnv4SaJAfZzfPbyI78OT857z2vb/AyolDlf1Kw==);strokeColor=#000000;spacingTop=-3;spacingBottom=-3;spacingLeft=-3;spacingRight=-3;points=[];labelBackgroundColor=none;rounded=0;html=1;whiteSpace=wrap;" parent="1" vertex="1">
          <mxGeometry x="697" y="438" width="274" height="76" as="geometry" />
        </mxCell>
        <mxCell id="9" style="vsdxID=9;fillColor=#FFFFFF;gradientColor=none;shape=stencil(jZA9DoMwDIVP47GRYw+QmdJ7IJE2UdsEhfTv9iTyUNoBsb1nf7bsB9zNbpgsEM45xat9+TE74CMQ+eBs8rko4B64O8dkLyk+wih+GipZ1T0+64a3zGGdIPyI0yj+JOjNhxXaGmX0frwxqqUfnLbwg0aFZj+/eXgR34clq3XvP5xSkmC5XwA=);strokeColor=#000000;strokeWidth=4;spacingTop=-3;spacingBottom=-3;spacingLeft=-3;spacingRight=-3;points=[];labelBackgroundColor=none;rounded=0;html=1;whiteSpace=wrap;" parent="1" vertex="1">
          <mxGeometry x="697" y="438" width="274" height="76" as="geometry" />
        </mxCell>
        <mxCell id="10" value="&lt;div style=&quot;font-size: 1px&quot;&gt;&lt;font style=&quot;font-size:25.15px;font-family:Arial;color:#000000;direction:ltr;letter-spacing:0px;line-height:120%;opacity:1&quot;&gt;DATA Processing&lt;br/&gt;&lt;/font&gt;&lt;/div&gt;" style="verticalAlign=middle;align=center;vsdxID=10;fillColor=none;gradientColor=none;strokeColor=none;spacingTop=-3;spacingBottom=-3;spacingLeft=-3;spacingRight=-3;points=[];labelBackgroundColor=none;rounded=0;html=1;whiteSpace=wrap;" parent="1" vertex="1">
          <mxGeometry x="617" y="538" width="377" height="25" as="geometry" />
        </mxCell>
        <mxCell id="144" style="vsdxID=11;edgeStyle=none;startArrow=none;endArrow=none;startSize=2;endSize=2;strokeWidth=4;strokeColor=#000000;spacingTop=-3;spacingBottom=-3;spacingLeft=-3;spacingRight=-3;verticalAlign=middle;html=1;labelBackgroundColor=none;rounded=0;" parent="1" edge="1">
          <mxGeometry relative="1" as="geometry">
            <mxPoint y="-1" as="offset" />
            <Array as="points" />
            <mxPoint x="793" y="590" as="sourcePoint" />
            <mxPoint x="793" y="677" as="targetPoint" />
          </mxGeometry>
        </mxCell>
        <mxCell id="11" style="vsdxID=12;fillColor=#000000;gradientColor=none;shape=stencil(fZDdDoIwDIWfppeSssHFrhHfg4ThGudGxkR5e7c0UfCHu3Par017QDaT6UYNAqcY/EXfqY8G5BGEIGd0oJgUyBZkM/igz8HfXM9+7DKZ1dXPecOD5zBPCFzYlcj+xKglt0IPlSqU2vA7NBZYblhR/4frL/pV+L187+ok3t8OZC2Hte5/ppNKnKxsnw==);strokeColor=#000000;spacingTop=-3;spacingBottom=-3;spacingLeft=-3;spacingRight=-3;points=[];labelBackgroundColor=none;rounded=0;html=1;whiteSpace=wrap;" parent="1" vertex="1">
          <mxGeometry x="793" y="672" width="20" height="20" as="geometry" />
        </mxCell>
        <mxCell id="13" value="&lt;div style=&quot;font-size: 1px&quot;&gt;&lt;/div&gt;" style="verticalAlign=middle;align=center;vsdxID=14;fillColor=none;gradientColor=none;strokeColor=none;spacingTop=-3;spacingBottom=-3;spacingLeft=-3;spacingRight=-3;points=[];labelBackgroundColor=none;rounded=0;html=1;whiteSpace=wrap;" parent="1" vertex="1">
          <mxGeometry x="1121" y="1040" width="1" height="25" as="geometry" />
        </mxCell>
        <mxCell id="14" style="vsdxID=15;fillColor=#ffffff;gradientColor=none;shape=stencil(nZTbDsIgDIafhtuGUcbheup7mDgdcW7LNk9v7wgaFWQL3rX0/yD0hxIshmrblYTRYezbY3k1u7EiuCKMmaYqezNOEcE1wWLf9uWhb8/NzuXd1iptdGovdoeb46glGL27LKMu3zhpbZoP6av4n1gpUDqu1ww0egQHinFCCciFR9DX0m+CgvAIqYDLOCFzTy5BqrhcaECedIBA4DzpErkEKpMalac5wUMnNMKzEz8JDJ3QEmweJUIn9NS7LE6wbyfY7NsLbVjYPQttWLhB6MJCk9JMSPhps9IpeP/8valrNzg+6/6kmJbclMH1Aw==);strokeColor=#000000;spacingTop=-3;spacingBottom=-3;spacingLeft=-3;spacingRight=-3;points=[];labelBackgroundColor=none;rounded=0;html=1;whiteSpace=wrap;" parent="1" vertex="1">
          <mxGeometry x="1355" y="843" width="352" height="145" as="geometry" />
        </mxCell>
        <mxCell id="17" value="&lt;div style=&quot;font-size: 1px&quot;&gt;&lt;font style=&quot;font-size:25.15px;font-family:Arial;color:#000000;direction:ltr;letter-spacing:0px;line-height:120%;opacity:1&quot;&gt;of the CMM and concentration&lt;br/&gt;&lt;/font&gt;&lt;/div&gt;" style="verticalAlign=middle;align=center;vsdxID=18;fillColor=none;gradientColor=none;strokeColor=none;spacingTop=-3;spacingBottom=-3;spacingLeft=-3;spacingRight=-3;points=[];labelBackgroundColor=none;rounded=0;html=1;whiteSpace=wrap;" parent="1" vertex="1">
          <mxGeometry x="1179" y="1023" width="704" height="25" as="geometry" />
        </mxCell>
        <mxCell id="145" style="vsdxID=20;edgeStyle=none;startArrow=none;endArrow=none;startSize=2;endSize=2;strokeWidth=4;strokeColor=#000000;spacingTop=-3;spacingBottom=-3;spacingLeft=-3;spacingRight=-3;verticalAlign=middle;html=1;labelBackgroundColor=none;rounded=0;" parent="1" edge="1">
          <mxGeometry relative="1" as="geometry">
            <mxPoint x="73" y="-1" as="offset" />
            <Array as="points" />
            <mxPoint x="1353" y="1069" as="sourcePoint" />
            <mxPoint x="1280" y="1070" as="targetPoint" />
          </mxGeometry>
        </mxCell>
        <mxCell id="18" value="&lt;div style=&quot;font-size: 1px&quot;&gt;&lt;font style=&quot;font-size:25.15px;font-family:Arial;color:#000000;direction:ltr;letter-spacing:0px;line-height:120%;opacity:1&quot;&gt;of the CH4&lt;br/&gt;&lt;/font&gt;&lt;/div&gt;" style="verticalAlign=middle;align=center;vsdxID=19;fillColor=none;gradientColor=none;strokeColor=none;spacingTop=-3;spacingBottom=-3;spacingLeft=-3;spacingRight=-3;points=[];labelBackgroundColor=none;rounded=0;html=1;whiteSpace=wrap;" parent="1" vertex="1">
          <mxGeometry x="1407" y="1056" width="251" height="25" as="geometry" />
        </mxCell>
        <mxCell id="19" style="vsdxID=21;fillColor=#000000;gradientColor=none;shape=stencil(hZDNDsIgEISfZq+EnybAudb3aFIqRISGYtW3F7JRW5PqbQbmY5cB0c62nwxwOucUz+bmhmxBHIBzF6xJLhcFogPRjjGZU4rXMKCf+pqs6hKX+sIdOVoJTh/oGEV/xKh3YRXVkii2iTeSSL0PyIYwtQG0IqLZB17j3+v8GfBz+SI+nx6d99jZ+v67pHKEBYvuCQ==);strokeColor=#000000;spacingTop=-3;spacingBottom=-3;spacingLeft=-3;spacingRight=-3;points=[];labelBackgroundColor=none;rounded=0;html=1;whiteSpace=wrap;" parent="1" vertex="1">
          <mxGeometry x="1265" y="1051" width="20" height="20" as="geometry" />
        </mxCell>
        <mxCell id="20" style="vsdxID=22;fillColor=#FFFFFF;gradientColor=none;shape=stencil(hZDBDsIgEES/Zq8E2CbAudb/aFIUokJDserfC9morUn1NgPz2GUA28n1owXJp5ziyd78kB3gDqT0wdnkc1GAHWB7iMkeU7yGgfzY12RVlzjXF+7E8UpI/iAnOPk9Rc8+LKJGMS1W8UYxZbYB1TChV4DRDJtt4DX+vc6fAT+XL+LzaeprefddUDmicrF7Ag==);strokeColor=#000000;strokeWidth=4;spacingTop=-3;spacingBottom=-3;spacingLeft=-3;spacingRight=-3;points=[];labelBackgroundColor=none;rounded=0;html=1;whiteSpace=wrap;" parent="1" vertex="1">
          <mxGeometry x="1265" y="1051" width="20" height="20" as="geometry" />
        </mxCell>
        <mxCell id="21" style="vsdxID=23;fillColor=#ffffff;gradientColor=none;shape=stencil(nZBLDoAgDERP0z3SI/i5h4kojQgG8Xd7IY3RuGDhbqbz2iYDWC66nRVIsQTvRrVTFzRgBVKS1cpTiAqwBix759Xg3Wo79nObyKQmt6ULB++JtCHFya4Q7BtGDdkXeoe/4Az6E8y+z6JRPHX0ZAy3+c6/9cURV4/1BQ==);strokeColor=#000000;spacingTop=-3;spacingBottom=-3;spacingLeft=-3;spacingRight=-3;points=[];labelBackgroundColor=none;rounded=0;html=1;whiteSpace=wrap;" parent="1" vertex="1">
          <mxGeometry x="988" y="1017" width="272" height="108" as="geometry" />
        </mxCell>
        <mxCell id="25" style="vsdxID=27;fillColor=#ffffff;gradientColor=none;shape=stencil(lVXZboMwEPwaP3ple/Gxz2n6H5FCCiqFiJAef1+QlTYy1hre7DCT9c7sIfBwa07XWhh1m8bhvf5qz1Mj8EUY0/ZNPbbTfBJ4FHi4DGP9Ng73/hzv19OCXE4fw+fyD9+RpxaGUT/xplW8v0Zo1/ZPUOfA+e1wr0BhAtegDMNA0DZhIBAyDAtECSOArRhGgCqJoStwDCMoqJIYxoDiGOaR5h8DFfuqmZHmgQTEaBUQMFHXMmZkArjZn7ArCUdQuV1CeQ/EMDJmBAvIMdaGk2ZflSkqcqD8rsKlAMRote4Mw3WG2g6V+JBj61ukW7lQyFcSoNmlqdQafBKkYJzUCCGJUqgOqe0q+UIJSu1WbVGo84WSjjWuk3IhCr2aS6QwEHJyFaZOzpTCaMs4XxifmeoqjOhMBRfWwI6VxELnw//Wu7RdF5fm8/d0S84/xQ2Lx18=);strokeColor=#000000;spacingTop=-3;spacingBottom=-3;spacingLeft=-3;spacingRight=-3;points=[];labelBackgroundColor=none;rounded=0;html=1;whiteSpace=wrap;" parent="1" vertex="1">
          <mxGeometry x="1407" y="2531" width="174" height="62" as="geometry" />
        </mxCell>
        <mxCell id="26" style="vsdxID=28;fillColor=#FFFFFF;gradientColor=none;shape=stencil(lVXbboMwDP2aPMZyYhKS5677j0plA22DitJd/n6gqFsVIhvekuJTx+cc24oO1/Z0aZTF6zQOb81Xd55aRU/K2q5vm7Gb5pOio6LDyzA2r+Nw68/pfjktkcvpY/hc/uE74XBBWPxJN4Pp/pxC37v+IdR78PX28BoBKQs3gJZBEBiXIQgiMQgHMWaIAK5iEAGqLIepwDOIgFBlOawF5BD2XuYfgpB91YzI66AIkeEqEFDGrmPEKCTwsz5hVxE+QuV3EVXXEBlEQYzggDjEWvBo2FcVTBU9YL3LuDFAZLhad4blOgO3h2q607H1LdqvVBDq1RHI7uJUGwN1lkQQThuCkGUR3KGNWxUvWFAbv2oLwecLJB9rXCeVUgi9WipEGAgluoSpUxJFGG0F5YXxWXCXMKILDhbWALuS5sP/Kktb8PFbvvbmn9LKpOMv);strokeColor=#000000;strokeWidth=4;spacingTop=-3;spacingBottom=-3;spacingLeft=-3;spacingRight=-3;points=[];labelBackgroundColor=none;rounded=0;html=1;whiteSpace=wrap;" parent="1" vertex="1">
          <mxGeometry x="1407" y="2531" width="174" height="62" as="geometry" />
        </mxCell>
        <mxCell id="27" value="&lt;div style=&quot;font-size: 1px&quot;&gt;&lt;font style=&quot;font-size:25.15px;font-family:Arial;color:#000000;direction:ltr;letter-spacing:0px;line-height:120%;opacity:1&quot;&gt;Finish&lt;br/&gt;&lt;/font&gt;&lt;/div&gt;" style="verticalAlign=middle;align=center;vsdxID=29;fillColor=none;gradientColor=none;strokeColor=none;spacingTop=-3;spacingBottom=-3;spacingLeft=-3;spacingRight=-3;points=[];labelBackgroundColor=none;rounded=0;html=1;whiteSpace=wrap;" parent="1" vertex="1">
          <mxGeometry x="1390" y="2614" width="150" height="25" as="geometry" />
        </mxCell>
        <mxCell id="28" value="&lt;div style=&quot;font-size: 1px&quot;&gt;&lt;/div&gt;" style="verticalAlign=middle;align=center;vsdxID=30;fillColor=none;gradientColor=none;strokeColor=none;spacingTop=-3;spacingBottom=-3;spacingLeft=-3;spacingRight=-3;points=[];labelBackgroundColor=none;rounded=0;html=1;whiteSpace=wrap;" parent="1" vertex="1">
          <mxGeometry x="1378" y="524" width="1" height="25" as="geometry" />
        </mxCell>
        <mxCell id="29" style="vsdxID=31;fillColor=#ffffff;gradientColor=none;shape=stencil(UzV2Ls5ILEhVNTIoLinKz04tz0wpyVA1dlE1MsrMy0gtyiwBslSNXVWNndPyi1LTi/JL81Ig/IJEkEoQKze/DGRCBUSfAUiHkUElhGdoAOG7QZTmZOYhKTVFU2uKRy2qUiN8xuqSby6ac4EMhDfTMnNyIKGELI8eLEAhSJAauwIA);strokeColor=#000000;spacingTop=-3;spacingBottom=-3;spacingLeft=-3;spacingRight=-3;points=[];labelBackgroundColor=none;rounded=0;html=1;whiteSpace=wrap;" parent="1" vertex="1">
          <mxGeometry x="793" y="513" width="290" height="183" as="geometry" />
        </mxCell>
        <mxCell id="30" style="vsdxID=32;fillColor=#FFFFFF;gradientColor=none;shape=stencil(UzV2Ls5ILEhVNTIoLinKz04tz0wpyVA1dlE1MsrMy0gtyiwBslSNXVWNndPyi1LTi/JL81Ig/IJEkEoQKze/DGRCBUSfAUiHkUElhGdoAOG7QZTmZOYhKTVFU2uKRy2qUiN8xuqSby6ac4EMhDchIYQshx4kQCFIcBq7AgA=);strokeColor=#000000;strokeWidth=4;spacingTop=-3;spacingBottom=-3;spacingLeft=-3;spacingRight=-3;points=[];labelBackgroundColor=none;rounded=0;html=1;whiteSpace=wrap;" parent="1" vertex="1">
          <mxGeometry x="793" y="513" width="290" height="183" as="geometry" />
        </mxCell>
        <mxCell id="31" value="&lt;div style=&quot;font-size: 1px&quot;&gt;&lt;font style=&quot;font-size:25.15px;font-family:Arial;color:#000000;direction:ltr;letter-spacing:0px;line-height:120%;opacity:1&quot;&gt;Filtering&lt;br/&gt;&lt;/font&gt;&lt;/div&gt;" style="verticalAlign=middle;align=center;vsdxID=33;fillColor=none;gradientColor=none;strokeColor=none;spacingTop=-3;spacingBottom=-3;spacingLeft=-3;spacingRight=-3;points=[];labelBackgroundColor=none;rounded=0;html=1;whiteSpace=wrap;" parent="1" vertex="1">
          <mxGeometry x="679.5" y="763" width="226" height="25" as="geometry" />
        </mxCell>
        <mxCell id="32" value="&lt;div style=&quot;font-size: 1px&quot;&gt;&lt;font style=&quot;font-size:25.15px;font-family:Arial;color:#000000;direction:ltr;letter-spacing:0px;line-height:120%;opacity:1&quot;&gt;required?&lt;br/&gt;&lt;/font&gt;&lt;/div&gt;" style="verticalAlign=middle;align=center;vsdxID=34;fillColor=none;gradientColor=none;strokeColor=none;spacingTop=-3;spacingBottom=-3;spacingLeft=-3;spacingRight=-3;points=[];labelBackgroundColor=none;rounded=0;html=1;whiteSpace=wrap;" parent="1" vertex="1">
          <mxGeometry x="682" y="804" width="226" height="25" as="geometry" />
        </mxCell>
        <mxCell id="33" value="&lt;div style=&quot;font-size: 1px&quot;&gt;&lt;/div&gt;" style="verticalAlign=middle;align=center;vsdxID=35;fillColor=none;gradientColor=none;strokeColor=none;spacingTop=-3;spacingBottom=-3;spacingLeft=-3;spacingRight=-3;points=[];labelBackgroundColor=none;rounded=0;html=1;whiteSpace=wrap;" parent="1" vertex="1">
          <mxGeometry x="793" y="763" width="1" height="25" as="geometry" />
        </mxCell>
        <mxCell id="34" style="vsdxID=36;fillColor=#FFFFFF;gradientColor=none;shape=stencil(UzV2Ls5ILEhVNTIoLinKz04tz0wpyVA1dlE1MsrMy0gtyiwBslSNXVWNndPyi1LTi/JL81Ig/IJEkEoQKze/DGRCBUSfAUiHkUElhGdoAOG7QZTmZObhUWqoZ2SIWzXMKHLVG6E6BchAeAHie2Q5dO8ChSBBZewKAA==);strokeColor=#000000;strokeWidth=4;spacingTop=-3;spacingBottom=-3;spacingLeft=-3;spacingRight=-3;points=[];labelBackgroundColor=none;rounded=0;html=1;whiteSpace=wrap;" parent="1" vertex="1">
          <mxGeometry x="938" y="579" width="185" height="209" as="geometry" />
        </mxCell>
        <mxCell id="35" style="vsdxID=37;fillColor=#000000;gradientColor=none;shape=stencil(UzV2Ls5ILEhVNTIoLinKz04tz0wpyVA1dlE1MsrMy0gtyiwBslSNXVWNndPyi1LTi/JL81Ig/IJEkEoQKze/DGRCBUSfAUiHkUElhGdoAOG7QZTmZOYhKdU1RVWMRymqQiNT3CrJNRPNpUAGwodpmTk5kABClkcPEaAQJDSNXQE=);strokeColor=#000000;spacingTop=-3;spacingBottom=-3;spacingLeft=-3;spacingRight=-3;points=[];labelBackgroundColor=none;rounded=0;html=1;whiteSpace=wrap;" parent="1" vertex="1">
          <mxGeometry x="1124" y="992" width="20" height="20" as="geometry" />
        </mxCell>
        <mxCell id="36" style="vsdxID=38;fillColor=#FFFFFF;gradientColor=none;shape=stencil(UzV2Ls5ILEhVNTIoLinKz04tz0wpyVA1dlE1MsrMy0gtyiwBslSNXVWNndPyi1LTi/JL81Ig/IJEkEoQKze/DGRCBUSfAUiHkUElhGdoAOG7QZTmZOYhKdU1RVWMRymqQiNT3CrJNRPNpUAGwoeQwEGWQw8NoBAkJI1dAQ==);strokeColor=#000000;strokeWidth=4;spacingTop=-3;spacingBottom=-3;spacingLeft=-3;spacingRight=-3;points=[];labelBackgroundColor=none;rounded=0;html=1;whiteSpace=wrap;" parent="1" vertex="1">
          <mxGeometry x="1124" y="992" width="20" height="20" as="geometry" />
        </mxCell>
        <mxCell id="37" style="vsdxID=39;fillColor=#FFFFFF;gradientColor=none;shape=stencil(UzV2Ls5ILEhVNTIoLinKz04tz0wpyVA1dlE1MsrMy0gtyiwBslSNXVWNndPyi1LTi/JL81Ig/IJEkEoQKze/DGRCBUSfAUiHkUElhGdoAOG7QZTmZObhU6pnZopbtS7MLLI1GKE6BshAeALif2Q5dA8DhSCBZewKAA==);strokeColor=#000000;strokeWidth=4;spacingTop=-3;spacingBottom=-3;spacingLeft=-3;spacingRight=-3;points=[];labelBackgroundColor=none;rounded=0;html=1;whiteSpace=wrap;" parent="1" vertex="1">
          <mxGeometry x="647" y="579" width="183" height="209" as="geometry" />
        </mxCell>
        <mxCell id="38" style="vsdxID=40;fillColor=#000000;gradientColor=none;shape=stencil(UzV2Ls5ILEhVNTIoLinKz04tz0wpyVA1dlE1MsrMy0gtyiwBslSNXVWNndPyi1LTi/JL81Ig/IJEkEoQKze/DGRCBUSfAUiHkUElhGdoAOG7QZTmZOYhKdU1RVWMRymqQiNT3CrJNRPNpUAGwodpmTk5kABClkcPEaAQJDSNXQE=);strokeColor=#000000;spacingTop=-3;spacingBottom=-3;spacingLeft=-3;spacingRight=-3;points=[];labelBackgroundColor=none;rounded=0;html=1;whiteSpace=wrap;" parent="1" vertex="1">
          <mxGeometry x="464" y="993" width="20" height="20" as="geometry" />
        </mxCell>
        <mxCell id="39" style="vsdxID=41;fillColor=#FFFFFF;gradientColor=none;shape=stencil(UzV2Ls5ILEhVNTIoLinKz04tz0wpyVA1dlE1MsrMy0gtyiwBslSNXVWNndPyi1LTi/JL81Ig/IJEkEoQKze/DGRCBUSfAUiHkUElhGdoAOG7QZTmZOYhKdU1RVWMRymqQiNT3CrJNRPNpUAGwoeQwEGWQw8NoBAkJI1dAQ==);strokeColor=#000000;strokeWidth=4;spacingTop=-3;spacingBottom=-3;spacingLeft=-3;spacingRight=-3;points=[];labelBackgroundColor=none;rounded=0;html=1;whiteSpace=wrap;" parent="1" vertex="1">
          <mxGeometry x="464" y="993" width="20" height="20" as="geometry" />
        </mxCell>
        <mxCell id="40" style="vsdxID=42;fillColor=#ffffff;gradientColor=none;shape=stencil(nZBLDoAgDERP0z3SI/i5h4kojQgG8Xd7IY3RuGDhbqbz2iYDWC66nRVIsQTvRrVTFzRgBVKS1cpTiAqwBix759Xg3Wo79nObyKQmt6ULB++JtCHFya4Q7BtGDdkXeoe/4Az6E8y+z6JRPHX0ZAy3+c6/9cURV4/1BQ==);strokeColor=#000000;spacingTop=-3;spacingBottom=-3;spacingLeft=-3;spacingRight=-3;points=[];labelBackgroundColor=none;rounded=0;html=1;whiteSpace=wrap;" parent="1" vertex="1">
          <mxGeometry x="338" y="1017" width="252" height="108" as="geometry" />
        </mxCell>
        <mxCell id="41" style="vsdxID=43;fillColor=#FFFFFF;gradientColor=none;shape=stencil(nZBLDoAgDERP0z3SIyDew0QUooIB/N1eSGM0Lli4m+m8tskAiqDbRQFnIXo3qt10UQPWwLmxWnkTkwKUgKJ3Xg3erbYjv7SZzGp2W75w0B7LG5yd5CpGviF0MvaF3uEvuID+BIvvi2gSTx3U5Dv7VpdGVDvKCw==);strokeColor=#000000;strokeWidth=4;spacingTop=-3;spacingBottom=-3;spacingLeft=-3;spacingRight=-3;points=[];labelBackgroundColor=none;rounded=0;html=1;whiteSpace=wrap;" parent="1" vertex="1">
          <mxGeometry x="338" y="1017" width="252" height="108" as="geometry" />
        </mxCell>
        <mxCell id="42" value="&lt;div style=&quot;font-size: 1px&quot;&gt;&lt;font style=&quot;font-size:25.15px;font-family:Arial;color:#000000;direction:ltr;letter-spacing:0px;line-height:120%;opacity:1&quot;&gt;Choise of filtering &lt;br/&gt;&lt;/font&gt;&lt;/div&gt;" style="verticalAlign=middle;align=center;vsdxID=44;fillColor=none;gradientColor=none;strokeColor=none;spacingTop=-3;spacingBottom=-3;spacingLeft=-3;spacingRight=-3;points=[];labelBackgroundColor=none;rounded=0;html=1;whiteSpace=wrap;" parent="1" vertex="1">
          <mxGeometry x="222.5" y="1045" width="503" height="25" as="geometry" />
        </mxCell>
        <mxCell id="43" value="&lt;div style=&quot;font-size: 1px&quot;&gt;&lt;font style=&quot;font-size:25.15px;font-family:Arial;color:#000000;direction:ltr;letter-spacing:0px;line-height:120%;opacity:1&quot;&gt;equipment&lt;br/&gt;&lt;/font&gt;&lt;/div&gt;" style="verticalAlign=middle;align=center;vsdxID=45;fillColor=none;gradientColor=none;strokeColor=none;spacingTop=-3;spacingBottom=-3;spacingLeft=-3;spacingRight=-3;points=[];labelBackgroundColor=none;rounded=0;html=1;whiteSpace=wrap;" parent="1" vertex="1">
          <mxGeometry x="335" y="1081" width="226" height="25" as="geometry" />
        </mxCell>
        <mxCell id="44" value="&lt;div style=&quot;font-size: 1px&quot;&gt;&lt;font style=&quot;font-size:25.15px;font-family:Arial;color:#000000;direction:ltr;letter-spacing:0px;line-height:120%;opacity:1&quot;&gt;Yes&lt;br/&gt;&lt;/font&gt;&lt;/div&gt;" style="verticalAlign=middle;align=center;vsdxID=46;fillColor=none;gradientColor=none;strokeColor=none;spacingTop=-3;spacingBottom=-3;spacingLeft=-3;spacingRight=-3;points=[];labelBackgroundColor=none;rounded=0;html=1;whiteSpace=wrap;" parent="1" vertex="1">
          <mxGeometry x="534" y="746" width="75" height="25" as="geometry" />
        </mxCell>
        <mxCell id="45" value="&lt;div style=&quot;font-size: 1px&quot;&gt;&lt;font style=&quot;font-size:25.15px;font-family:Arial;color:#000000;direction:ltr;letter-spacing:0px;line-height:120%;opacity:1&quot;&gt;No&lt;br/&gt;&lt;/font&gt;&lt;/div&gt;" style="verticalAlign=middle;align=center;vsdxID=47;fillColor=none;gradientColor=none;strokeColor=none;spacingTop=-3;spacingBottom=-3;spacingLeft=-3;spacingRight=-3;points=[];labelBackgroundColor=none;rounded=0;html=1;whiteSpace=wrap;" parent="1" vertex="1">
          <mxGeometry x="1008" y="744" width="50" height="25" as="geometry" />
        </mxCell>
        <mxCell id="146" style="vsdxID=48;edgeStyle=none;startArrow=none;endArrow=none;startSize=2;endSize=2;strokeWidth=4;strokeColor=#000000;spacingTop=-3;spacingBottom=-3;spacingLeft=-3;spacingRight=-3;verticalAlign=middle;html=1;labelBackgroundColor=none;rounded=0;" parent="1" edge="1">
          <mxGeometry relative="1" as="geometry">
            <mxPoint as="offset" />
            <Array as="points" />
            <mxPoint x="590" y="1071" as="sourcePoint" />
            <mxPoint x="968" y="1071" as="targetPoint" />
          </mxGeometry>
        </mxCell>
        <mxCell id="46" style="vsdxID=49;fillColor=#000000;gradientColor=none;shape=stencil(fZDNDoMgEISfZo8lK9gfzta+h4lYSCkYxNq+fSEbU+uB2wzMxy4Dopl0NyrgOMXgH2oxfdQgrsC5cVoFE5MC0YJoBh/UPfjZ9eTHLiezevpXfuFNHGaC44dcheRvFLXGbaIHKZn8jx+RVQXgXDN52g9geCkg6wYrUJ5Q3D6J368HYy2Vtr3ft5SOqGHRfgE=);strokeColor=#000000;spacingTop=-3;spacingBottom=-3;spacingLeft=-3;spacingRight=-3;points=[];labelBackgroundColor=none;rounded=0;html=1;whiteSpace=wrap;" parent="1" vertex="1">
          <mxGeometry x="983" y="1051" width="20" height="20" as="geometry" />
        </mxCell>
        <mxCell id="47" style="vsdxID=50;fillColor=#FFFFFF;gradientColor=none;shape=stencil(fZDNDsIgEISfZo+SLVt/ONf6Hk2KQlRoKLX69kI2jbUHbjMwH7sMUDOabtAgcYzB3/Vs+2iAziCldUYHG5MCaoGaqw/6FvzkevZDl5NZPf0rv/BmDjMh8cOuQvYXjj6sW0V3Sgn1H9+jqArAsRbqsB0g8FRAlg0WoDyhuH0Sv19zYeu7bUPpiNul9gs=);strokeColor=#000000;strokeWidth=4;spacingTop=-3;spacingBottom=-3;spacingLeft=-3;spacingRight=-3;points=[];labelBackgroundColor=none;rounded=0;html=1;whiteSpace=wrap;" parent="1" vertex="1">
          <mxGeometry x="983" y="1051" width="20" height="20" as="geometry" />
        </mxCell>
        <mxCell id="48" value="&lt;div style=&quot;font-size: 1px&quot;&gt;&lt;/div&gt;" style="verticalAlign=middle;align=center;vsdxID=51;fillColor=none;gradientColor=none;strokeColor=none;spacingTop=-3;spacingBottom=-3;spacingLeft=-3;spacingRight=-3;points=[];labelBackgroundColor=none;rounded=0;html=1;whiteSpace=wrap;" parent="1" vertex="1">
          <mxGeometry x="1531" y="1040" width="1" height="25" as="geometry" />
        </mxCell>
        <mxCell id="49" value="&lt;div style=&quot;font-size: 1px&quot;&gt;&lt;/div&gt;" style="verticalAlign=middle;align=center;vsdxID=52;fillColor=none;gradientColor=none;strokeColor=none;spacingTop=-3;spacingBottom=-3;spacingLeft=-3;spacingRight=-3;points=[];labelBackgroundColor=none;rounded=0;html=1;whiteSpace=wrap;" parent="1" vertex="1">
          <mxGeometry x="1124" y="1046" width="1" height="25" as="geometry" />
        </mxCell>
        <mxCell id="50" value="&lt;div style=&quot;font-size: 1px&quot;&gt;&lt;/div&gt;" style="verticalAlign=middle;align=center;vsdxID=53;fillColor=none;gradientColor=none;strokeColor=none;spacingTop=-3;spacingBottom=-3;spacingLeft=-3;spacingRight=-3;points=[];labelBackgroundColor=none;rounded=0;html=1;whiteSpace=wrap;" parent="1" vertex="1">
          <mxGeometry x="76" y="2507" width="1" height="25" as="geometry" />
        </mxCell>
        <mxCell id="51" style="vsdxID=54;fillColor=#FFFFFF;gradientColor=none;shape=stencil(UzV2Ls5ILEhVNTIoLinKz04tz0wpyVA1dlE1MsrMy0gtyiwBslSNXVWNndPyi1LTi/JL81Ig/IJEkEoQKze/DGRCBUSfAUiHkUElhGdoAOG7QZTmZObhU6pnbIRbNcwoctUboToFyEB4AeJ7ZDl07wKFIEFl7AoA);strokeColor=#000000;strokeWidth=4;spacingTop=-3;spacingBottom=-3;spacingLeft=-3;spacingRight=-3;points=[];labelBackgroundColor=none;rounded=0;html=1;whiteSpace=wrap;" parent="1" vertex="1">
          <mxGeometry x="1328" y="1235" width="197" height="94" as="geometry" />
        </mxCell>
        <mxCell id="52" style="vsdxID=55;fillColor=#000000;gradientColor=none;shape=stencil(UzV2Ls5ILEhVNTIoLinKz04tz0wpyVA1dlE1MsrMy0gtyiwBslSNXVWNndPyi1LTi/JL81Ig/IJEkEoQKze/DGRCBUSfAUiHkUElhGdoAOG7QZTmZOYhKdU1RVWMRymqQiNT3CrJNRPNpUAGwodpmTk5kABClkcPEaAQJDSNXQE=);strokeColor=#000000;spacingTop=-3;spacingBottom=-3;spacingLeft=-3;spacingRight=-3;points=[];labelBackgroundColor=none;rounded=0;html=1;whiteSpace=wrap;" parent="1" vertex="1">
          <mxGeometry x="1526" y="1418" width="20" height="20" as="geometry" />
        </mxCell>
        <mxCell id="53" style="vsdxID=56;fillColor=#FFFFFF;gradientColor=none;shape=stencil(UzV2Ls5ILEhVNTIoLinKz04tz0wpyVA1dlE1MsrMy0gtyiwBslSNXVWNndPyi1LTi/JL81Ig/IJEkEoQKze/DGRCBUSfAUiHkUElhGdoAOG7QZTmZOYhKdU1RVWMRymqQiNT3CrJNRPNpUAGwoeQwEGWQw8NoBAkJI1dAQ==);strokeColor=#000000;strokeWidth=4;spacingTop=-3;spacingBottom=-3;spacingLeft=-3;spacingRight=-3;points=[];labelBackgroundColor=none;rounded=0;html=1;whiteSpace=wrap;" parent="1" vertex="1">
          <mxGeometry x="1526" y="1418" width="20" height="20" as="geometry" />
        </mxCell>
        <mxCell id="54" value="&lt;div style=&quot;font-size: 1px&quot;&gt;&lt;font style=&quot;font-size:25.15px;font-family:Arial;color:#000000;direction:ltr;letter-spacing:0px;line-height:120%;opacity:1&quot;&gt;No&lt;br/&gt;&lt;/font&gt;&lt;/div&gt;" style="verticalAlign=middle;align=center;vsdxID=57;fillColor=none;gradientColor=none;strokeColor=none;spacingTop=-3;spacingBottom=-3;spacingLeft=-3;spacingRight=-3;points=[];labelBackgroundColor=none;rounded=0;html=1;whiteSpace=wrap;" parent="1" vertex="1">
          <mxGeometry x="1412" y="1285" width="50" height="25" as="geometry" />
        </mxCell>
        <mxCell id="55" style="vsdxID=58;fillColor=#ffffff;gradientColor=none;shape=stencil(nZBLDoAgDERP0z3SI/i5h4kojQgG8Xd7IY3RuGDhbqbz2iYDWC66nRVIsQTvRrVTFzRgBVKS1cpTiAqwBix759Xg3Wo79nObyKQmt6ULB++JtCHFya4Q7BtGDdkXeoe/4Az6E8y+z6JRPHX0ZAy3+c6/9cURV4/1BQ==);strokeColor=#000000;spacingTop=-3;spacingBottom=-3;spacingLeft=-3;spacingRight=-3;points=[];labelBackgroundColor=none;rounded=0;html=1;whiteSpace=wrap;" parent="1" vertex="1">
          <mxGeometry x="1365" y="1442" width="321" height="108" as="geometry" />
        </mxCell>
        <mxCell id="56" style="vsdxID=59;fillColor=#FFFFFF;gradientColor=none;shape=stencil(nZBLDoAgDERP0z3SIyDew0QUooIB/N1eSGM0Lli4m+m8tskAiqDbRQFnIXo3qt10UQPWwLmxWnkTkwKUgKJ3Xg3erbYjv7SZzGp2W75w0B7LG5yd5CpGviF0MvaF3uEvuID+BIvvi2gSTx3U5Dv7VpdGVDvKCw==);strokeColor=#000000;strokeWidth=4;spacingTop=-3;spacingBottom=-3;spacingLeft=-3;spacingRight=-3;points=[];labelBackgroundColor=none;rounded=0;html=1;whiteSpace=wrap;" parent="1" vertex="1">
          <mxGeometry x="1365" y="1442" width="321" height="108" as="geometry" />
        </mxCell>
        <mxCell id="57" value="&lt;div style=&quot;font-size: 1px&quot;&gt;&lt;font style=&quot;font-size:25.15px;font-family:Arial;color:#000000;direction:ltr;letter-spacing:0px;line-height:120%;opacity:1&quot;&gt;Looking for other way of&lt;br/&gt;&lt;/font&gt;&lt;/div&gt;" style="verticalAlign=middle;align=center;vsdxID=60;fillColor=none;gradientColor=none;strokeColor=none;spacingTop=-3;spacingBottom=-3;spacingLeft=-3;spacingRight=-3;points=[];labelBackgroundColor=none;rounded=0;html=1;whiteSpace=wrap;" parent="1" vertex="1">
          <mxGeometry x="1225" y="1471" width="603" height="25" as="geometry" />
        </mxCell>
        <mxCell id="58" value="&lt;div style=&quot;font-size: 1px&quot;&gt;&lt;font style=&quot;font-size:25.15px;font-family:Arial;color:#000000;direction:ltr;letter-spacing:0px;line-height:120%;opacity:1&quot;&gt;utilization&lt;br/&gt;&lt;/font&gt;&lt;/div&gt;" style="verticalAlign=middle;align=center;vsdxID=61;fillColor=none;gradientColor=none;strokeColor=none;spacingTop=-3;spacingBottom=-3;spacingLeft=-3;spacingRight=-3;points=[];labelBackgroundColor=none;rounded=0;html=1;whiteSpace=wrap;" parent="1" vertex="1">
          <mxGeometry x="1398" y="1510" width="276" height="25" as="geometry" />
        </mxCell>
        <mxCell id="59" style="vsdxID=62;fillColor=#FFFFFF;gradientColor=none;shape=stencil(UzV2Ls5ILEhVNTIoLinKz04tz0wpyVA1dlE1MsrMy0gtyiwBslSNXVWNndPyi1LTi/JL81Ig/IJEkEoQKze/DGRCBUSfAUiHkUElhGdoAOG7QZTmZObhVGppoWdhgluxLswoctUbYmgAMhC+gAQAshy6j4FCkNAydgUA);strokeColor=#000000;strokeWidth=4;spacingTop=-3;spacingBottom=-3;spacingLeft=-3;spacingRight=-3;points=[];labelBackgroundColor=none;rounded=0;html=1;whiteSpace=wrap;" parent="1" vertex="1">
          <mxGeometry x="922" y="1234" width="201" height="95" as="geometry" />
        </mxCell>
        <mxCell id="60" style="vsdxID=63;fillColor=#000000;gradientColor=none;shape=stencil(UzV2Ls5ILEhVNTIoLinKz04tz0wpyVA1dlE1MsrMy0gtyiwBslSNXVWNndPyi1LTi/JL81Ig/IJEkEoQKze/DGRCBUSfAUiHkUElhGdoAOG7QZTmZOYhKdU1RVWMRymqQiNT3CrJNRPNpUAGwodpmTk5kABClkcPEaAQJDSNXQE=);strokeColor=#000000;spacingTop=-3;spacingBottom=-3;spacingLeft=-3;spacingRight=-3;points=[];labelBackgroundColor=none;rounded=0;html=1;whiteSpace=wrap;" parent="1" vertex="1">
          <mxGeometry x="720" y="1418" width="20" height="20" as="geometry" />
        </mxCell>
        <mxCell id="61" style="vsdxID=64;fillColor=#FFFFFF;gradientColor=none;shape=stencil(UzV2Ls5ILEhVNTIoLinKz04tz0wpyVA1dlE1MsrMy0gtyiwBslSNXVWNndPyi1LTi/JL81Ig/IJEkEoQKze/DGRCBUSfAUiHkUElhGdoAOG7QZTmZOYhKdU1RVWMRymqQiNT3CrJNRPNpUAGwoeQwEGWQw8NoBAkJI1dAQ==);strokeColor=#000000;strokeWidth=4;spacingTop=-3;spacingBottom=-3;spacingLeft=-3;spacingRight=-3;points=[];labelBackgroundColor=none;rounded=0;html=1;whiteSpace=wrap;" parent="1" vertex="1">
          <mxGeometry x="720" y="1418" width="20" height="20" as="geometry" />
        </mxCell>
        <mxCell id="62" value="&lt;div style=&quot;font-size: 1px&quot;&gt;&lt;font style=&quot;font-size:25.15px;font-family:Arial;color:#000000;direction:ltr;letter-spacing:0px;line-height:120%;opacity:1&quot;&gt;Yes&lt;br/&gt;&lt;/font&gt;&lt;/div&gt;" style="verticalAlign=middle;align=center;vsdxID=65;fillColor=none;gradientColor=none;strokeColor=none;spacingTop=-3;spacingBottom=-3;spacingLeft=-3;spacingRight=-3;points=[];labelBackgroundColor=none;rounded=0;html=1;whiteSpace=wrap;" parent="1" vertex="1">
          <mxGeometry x="819" y="1287" width="75" height="25" as="geometry" />
        </mxCell>
        <mxCell id="147" style="vsdxID=66;edgeStyle=none;startArrow=none;endArrow=none;startSize=2;endSize=2;strokeWidth=4;strokeColor=#000000;spacingTop=-3;spacingBottom=-3;spacingLeft=-3;spacingRight=-3;verticalAlign=middle;html=1;labelBackgroundColor=none;rounded=0;" parent="1" edge="1">
          <mxGeometry relative="1" as="geometry">
            <mxPoint x="-1" as="offset" />
            <Array as="points" />
            <mxPoint x="400" y="1637" as="sourcePoint" />
            <mxPoint x="1849" y="1640" as="targetPoint" />
          </mxGeometry>
        </mxCell>
        <mxCell id="148" style="vsdxID=67;edgeStyle=none;startArrow=none;endArrow=none;startSize=2;endSize=2;strokeWidth=4;strokeColor=#000000;spacingTop=-3;spacingBottom=-3;spacingLeft=-3;spacingRight=-3;verticalAlign=middle;html=1;labelBackgroundColor=none;rounded=0;" parent="1" edge="1">
          <mxGeometry relative="1" as="geometry">
            <mxPoint as="offset" />
            <Array as="points" />
            <mxPoint x="400" y="1677" as="sourcePoint" />
            <mxPoint x="1848" y="1676" as="targetPoint" />
          </mxGeometry>
        </mxCell>
        <mxCell id="63" value="&lt;div style=&quot;font-size: 1px&quot;&gt;&lt;/div&gt;" style="verticalAlign=middle;align=center;vsdxID=68;fillColor=none;gradientColor=none;strokeColor=none;spacingTop=-3;spacingBottom=-3;spacingLeft=-3;spacingRight=-3;points=[];labelBackgroundColor=none;rounded=0;html=1;whiteSpace=wrap;" parent="1" vertex="1">
          <mxGeometry x="1526" y="1471" width="1" height="25" as="geometry" />
        </mxCell>
        <mxCell id="149" style="vsdxID=69;edgeStyle=none;startArrow=none;endArrow=none;startSize=2;endSize=2;strokeWidth=4;strokeColor=#000000;spacingTop=-3;spacingBottom=-3;spacingLeft=-3;spacingRight=-3;verticalAlign=middle;html=1;labelBackgroundColor=none;rounded=0;" parent="1" edge="1">
          <mxGeometry relative="1" as="geometry">
            <mxPoint x="-1" y="-1" as="offset" />
            <Array as="points" />
            <mxPoint x="1124" y="1125" as="sourcePoint" />
            <mxPoint x="1125" y="1208" as="targetPoint" />
          </mxGeometry>
        </mxCell>
        <mxCell id="64" style="vsdxID=70;fillColor=#000000;gradientColor=none;shape=stencil(fZDNDsIgEISfZo8SukCq51rfo0mpEBEaSv15e0v2YDGR2wx8wy4DolvMMGtAvqQYbvppx2RAnAHReqOjTZsC0YPophD1NYbVj+TnIZNZ3cMjv/CiHM8J5G9yDSd/IdRZv0MPqmGoSp6hrAQ4O8mCR8Vk+z8gj6wtB1TWqW6+ie+PJ+scFba//21oO6J2Rf8B);strokeColor=#000000;spacingTop=-3;spacingBottom=-3;spacingLeft=-3;spacingRight=-3;points=[];labelBackgroundColor=none;rounded=0;html=1;whiteSpace=wrap;" parent="1" vertex="1">
          <mxGeometry x="1125" y="1203" width="20" height="20" as="geometry" />
        </mxCell>
        <mxCell id="65" style="vsdxID=71;fillColor=#FFFFFF;gradientColor=none;shape=stencil(fZDBDsIgEES/Zo8SukCq51r/o0lRiAoNpWr/vpA9WEzkNgNv2GVAdLMZJg3I5xj8Xb/tGA2IMyBaZ3SwMSkQPYju6oO+Bb+4kfw0ZDKrp3/lFz6U4zmBfCXXcPIXQh/W7dCDahiqkmcoKwHOTrLgUTHZ/g/II2vLAZV1qpsn8f0xlbW/+20nHVGzot8A);strokeColor=#000000;strokeWidth=4;spacingTop=-3;spacingBottom=-3;spacingLeft=-3;spacingRight=-3;points=[];labelBackgroundColor=none;rounded=0;html=1;whiteSpace=wrap;" parent="1" vertex="1">
          <mxGeometry x="1125" y="1203" width="20" height="20" as="geometry" />
        </mxCell>
        <mxCell id="66" style="vsdxID=72;fillColor=#ffffff;gradientColor=none;shape=stencil(nZBLDoAgDERP0z3SI/i5h4kojQgG8Xd7IY3RuGDhbqbz2iYDWC66nRVIsQTvRrVTFzRgBVKS1cpTiAqwBix759Xg3Wo79nObyKQmt6ULB++JtCHFya4Q7BtGDdkXeoe/4Az6E8y+z6JRPHX0ZAy3+c6/9cURV4/1BQ==);strokeColor=#000000;spacingTop=-3;spacingBottom=-3;spacingLeft=-3;spacingRight=-3;points=[];labelBackgroundColor=none;rounded=0;html=1;whiteSpace=wrap;" parent="1" vertex="1">
          <mxGeometry x="1331" y="2387" width="268" height="107" as="geometry" />
        </mxCell>
        <mxCell id="67" style="vsdxID=73;fillColor=#FFFFFF;gradientColor=none;shape=stencil(nZBLDoAgDERP0z3SIyDew0QUooIB/N1eSGM0Lli4m+m8tskAiqDbRQFnIXo3qt10UQPWwLmxWnkTkwKUgKJ3Xg3erbYjv7SZzGp2W75w0B7LG5yd5CpGviF0MvaF3uEvuID+BIvvi2gSTx3U5Dv7VpdGVDvKCw==);strokeColor=#000000;strokeWidth=4;spacingTop=-3;spacingBottom=-3;spacingLeft=-3;spacingRight=-3;points=[];labelBackgroundColor=none;rounded=0;html=1;whiteSpace=wrap;" parent="1" vertex="1">
          <mxGeometry x="1331" y="2387" width="268" height="107" as="geometry" />
        </mxCell>
        <mxCell id="68" value="&lt;div style=&quot;font-size: 1px&quot;&gt;&lt;font style=&quot;font-size:25.15px;font-family:Arial;color:#000000;direction:ltr;letter-spacing:0px;line-height:120%;opacity:1&quot;&gt;Comprative analysis&lt;br/&gt;&lt;/font&gt;&lt;/div&gt;" style="verticalAlign=middle;align=center;vsdxID=74;fillColor=none;gradientColor=none;strokeColor=none;spacingTop=-3;spacingBottom=-3;spacingLeft=-3;spacingRight=-3;points=[];labelBackgroundColor=none;rounded=0;html=1;whiteSpace=wrap;" parent="1" vertex="1">
          <mxGeometry x="1226.5" y="2428" width="477" height="25" as="geometry" />
        </mxCell>
        <mxCell id="150" style="vsdxID=75;edgeStyle=none;startArrow=none;endArrow=none;startSize=2;endSize=2;strokeWidth=4;strokeColor=#000000;spacingTop=-3;spacingBottom=-3;spacingLeft=-3;spacingRight=-3;verticalAlign=middle;html=1;labelBackgroundColor=none;rounded=0;" parent="1" edge="1">
          <mxGeometry relative="1" as="geometry">
            <mxPoint y="-1" as="offset" />
            <Array as="points" />
            <mxPoint x="2040" y="477" as="sourcePoint" />
            <mxPoint x="2040" y="624" as="targetPoint" />
          </mxGeometry>
        </mxCell>
        <mxCell id="151" style="vsdxID=76;edgeStyle=none;startArrow=none;endArrow=none;startSize=2;endSize=2;strokeWidth=4;strokeColor=#000000;spacingTop=-3;spacingBottom=-3;spacingLeft=-3;spacingRight=-3;verticalAlign=middle;html=1;labelBackgroundColor=none;rounded=0;" parent="1" edge="1">
          <mxGeometry relative="1" as="geometry">
            <mxPoint as="offset" />
            <Array as="points" />
            <mxPoint x="2040" y="477" as="sourcePoint" />
            <mxPoint x="2266" y="477" as="targetPoint" />
          </mxGeometry>
        </mxCell>
        <mxCell id="152" style="vsdxID=77;edgeStyle=none;startArrow=none;endArrow=none;startSize=2;endSize=2;strokeWidth=4;strokeColor=#000000;spacingTop=-3;spacingBottom=-3;spacingLeft=-3;spacingRight=-3;verticalAlign=middle;html=1;labelBackgroundColor=none;rounded=0;" parent="1" edge="1">
          <mxGeometry relative="1" as="geometry">
            <mxPoint as="offset" />
            <Array as="points" />
            <mxPoint x="2040" y="624" as="sourcePoint" />
            <mxPoint x="2266" y="624" as="targetPoint" />
          </mxGeometry>
        </mxCell>
        <mxCell id="69" value="&lt;div style=&quot;font-size: 1px&quot;&gt;&lt;font style=&quot;font-size:25.15px;font-family:Arial;color:#000000;direction:ltr;letter-spacing:0px;line-height:120%;opacity:1&quot;&gt;Initial data should&lt;br/&gt;&lt;/font&gt;&lt;/div&gt;" style="verticalAlign=middle;align=center;vsdxID=78;fillColor=none;gradientColor=none;strokeColor=none;spacingTop=-3;spacingBottom=-3;spacingLeft=-3;spacingRight=-3;points=[];labelBackgroundColor=none;rounded=0;html=1;whiteSpace=wrap;" parent="1" vertex="1">
          <mxGeometry x="2158" y="491" width="477" height="25" as="geometry" />
        </mxCell>
        <mxCell id="70" value="&lt;div style=&quot;font-size: 1px&quot;&gt;&lt;font style=&quot;font-size:25.15px;font-family:Arial;color:#000000;direction:ltr;letter-spacing:0px;line-height:120%;opacity:1&quot;&gt;include the&lt;br/&gt;&lt;/font&gt;&lt;/div&gt;" style="verticalAlign=middle;align=center;vsdxID=79;fillColor=none;gradientColor=none;strokeColor=none;spacingTop=-3;spacingBottom=-3;spacingLeft=-3;spacingRight=-3;points=[];labelBackgroundColor=none;rounded=0;html=1;whiteSpace=wrap;" parent="1" vertex="1">
          <mxGeometry x="2158" y="523" width="276" height="25" as="geometry" />
        </mxCell>
        <mxCell id="71" value="&lt;div style=&quot;font-size: 1px&quot;&gt;&lt;font style=&quot;font-size:25.15px;font-family:Arial;color:#000000;direction:ltr;letter-spacing:0px;line-height:120%;opacity:1&quot;&gt;composition and&lt;br/&gt;&lt;/font&gt;&lt;/div&gt;" style="verticalAlign=middle;align=center;vsdxID=80;fillColor=none;gradientColor=none;strokeColor=none;spacingTop=-3;spacingBottom=-3;spacingLeft=-3;spacingRight=-3;points=[];labelBackgroundColor=none;rounded=0;html=1;whiteSpace=wrap;" parent="1" vertex="1">
          <mxGeometry x="2158" y="555" width="377" height="25" as="geometry" />
        </mxCell>
        <mxCell id="72" value="&lt;div style=&quot;font-size: 1px&quot;&gt;&lt;font style=&quot;font-size:25.15px;font-family:Arial;color:#000000;direction:ltr;letter-spacing:0px;line-height:120%;opacity:1&quot;&gt;volume of CMM&lt;br/&gt;&lt;/font&gt;&lt;/div&gt;" style="verticalAlign=middle;align=center;vsdxID=81;fillColor=none;gradientColor=none;strokeColor=none;spacingTop=-3;spacingBottom=-3;spacingLeft=-3;spacingRight=-3;points=[];labelBackgroundColor=none;rounded=0;html=1;whiteSpace=wrap;" parent="1" vertex="1">
          <mxGeometry x="2158" y="587" width="327" height="25" as="geometry" />
        </mxCell>
        <mxCell id="153" style="vsdxID=82;edgeStyle=none;dashed=1;startArrow=none;endArrow=none;startSize=2;endSize=2;strokeWidth=4;strokeColor=#000000;spacingTop=-3;spacingBottom=-3;spacingLeft=-3;spacingRight=-3;verticalAlign=middle;html=1;labelBackgroundColor=none;rounded=0;" parent="1" edge="1">
          <mxGeometry relative="1" as="geometry">
            <mxPoint x="-1" as="offset" />
            <Array as="points" />
            <mxPoint x="930" y="552" as="sourcePoint" />
            <mxPoint x="2040" y="551" as="targetPoint" />
          </mxGeometry>
        </mxCell>
        <mxCell id="73" value="&lt;div style=&quot;font-size: 1px&quot;&gt;&lt;/div&gt;" style="verticalAlign=middle;align=center;vsdxID=83;fillColor=none;gradientColor=none;strokeColor=none;spacingTop=-3;spacingBottom=-3;spacingLeft=-3;spacingRight=-3;points=[];labelBackgroundColor=none;rounded=0;html=1;whiteSpace=wrap;" parent="1" vertex="1">
          <mxGeometry x="1773" y="764" width="1" height="25" as="geometry" />
        </mxCell>
        <mxCell id="154" style="vsdxID=84;edgeStyle=none;startArrow=none;endArrow=none;startSize=2;endSize=2;strokeWidth=4;strokeColor=#000000;spacingTop=-3;spacingBottom=-3;spacingLeft=-3;spacingRight=-3;verticalAlign=middle;html=1;labelBackgroundColor=none;rounded=0;" parent="1" edge="1">
          <mxGeometry relative="1" as="geometry">
            <mxPoint y="-1" as="offset" />
            <Array as="points" />
            <mxPoint x="2040" y="717" as="sourcePoint" />
            <mxPoint x="2040" y="864" as="targetPoint" />
          </mxGeometry>
        </mxCell>
        <mxCell id="155" style="vsdxID=85;edgeStyle=none;startArrow=none;endArrow=none;startSize=2;endSize=2;strokeWidth=4;strokeColor=#000000;spacingTop=-3;spacingBottom=-3;spacingLeft=-3;spacingRight=-3;verticalAlign=middle;html=1;labelBackgroundColor=none;rounded=0;" parent="1" edge="1">
          <mxGeometry relative="1" as="geometry">
            <mxPoint x="-1" as="offset" />
            <Array as="points" />
            <mxPoint x="2040" y="717" as="sourcePoint" />
            <mxPoint x="2277" y="717" as="targetPoint" />
          </mxGeometry>
        </mxCell>
        <mxCell id="156" style="vsdxID=86;edgeStyle=none;startArrow=none;endArrow=none;startSize=2;endSize=2;strokeWidth=4;strokeColor=#000000;spacingTop=-3;spacingBottom=-3;spacingLeft=-3;spacingRight=-3;verticalAlign=middle;html=1;labelBackgroundColor=none;rounded=0;" parent="1" edge="1">
          <mxGeometry relative="1" as="geometry">
            <mxPoint x="-1" as="offset" />
            <Array as="points" />
            <mxPoint x="2040" y="864" as="sourcePoint" />
            <mxPoint x="2277" y="864" as="targetPoint" />
          </mxGeometry>
        </mxCell>
        <mxCell id="74" value="&lt;div style=&quot;font-size: 1px&quot;&gt;&lt;font style=&quot;font-size:25.15px;font-family:Arial;color:#000000;direction:ltr;letter-spacing:0px;line-height:120%;opacity:1&quot;&gt;Assasment of &lt;br/&gt;&lt;/font&gt;&lt;/div&gt;" style="verticalAlign=middle;align=center;vsdxID=87;fillColor=none;gradientColor=none;strokeColor=none;spacingTop=-3;spacingBottom=-3;spacingLeft=-3;spacingRight=-3;points=[];labelBackgroundColor=none;rounded=0;html=1;whiteSpace=wrap;" parent="1" vertex="1">
          <mxGeometry x="2164" y="747" width="327" height="25" as="geometry" />
        </mxCell>
        <mxCell id="75" value="&lt;div style=&quot;font-size: 1px&quot;&gt;&lt;font style=&quot;font-size:25.15px;font-family:Arial;color:#000000;direction:ltr;letter-spacing:0px;line-height:120%;opacity:1&quot;&gt;filtering equipment&lt;br/&gt;&lt;/font&gt;&lt;/div&gt;" style="verticalAlign=middle;align=center;vsdxID=88;fillColor=none;gradientColor=none;strokeColor=none;spacingTop=-3;spacingBottom=-3;spacingLeft=-3;spacingRight=-3;points=[];labelBackgroundColor=none;rounded=0;html=1;whiteSpace=wrap;" parent="1" vertex="1">
          <mxGeometry x="2164" y="779" width="477" height="25" as="geometry" />
        </mxCell>
        <mxCell id="76" value="&lt;div style=&quot;font-size: 1px&quot;&gt;&lt;font style=&quot;font-size:25.15px;font-family:Arial;color:#000000;direction:ltr;letter-spacing:0px;line-height:120%;opacity:1&quot;&gt;requaring&lt;br/&gt;&lt;/font&gt;&lt;/div&gt;" style="verticalAlign=middle;align=center;vsdxID=89;fillColor=none;gradientColor=none;strokeColor=none;spacingTop=-3;spacingBottom=-3;spacingLeft=-3;spacingRight=-3;points=[];labelBackgroundColor=none;rounded=0;html=1;whiteSpace=wrap;" parent="1" vertex="1">
          <mxGeometry x="2164" y="811" width="226" height="25" as="geometry" />
        </mxCell>
        <mxCell id="157" style="vsdxID=90;edgeStyle=none;dashed=1;startArrow=none;endArrow=none;startSize=2;endSize=2;strokeWidth=4;strokeColor=#000000;spacingTop=-3;spacingBottom=-3;spacingLeft=-3;spacingRight=-3;verticalAlign=middle;html=1;labelBackgroundColor=none;rounded=0;" parent="1" edge="1">
          <mxGeometry relative="1" as="geometry">
            <mxPoint x="-1" as="offset" />
            <Array as="points" />
            <mxPoint x="1148" y="795" as="sourcePoint" />
            <mxPoint x="2040" y="791" as="targetPoint" />
          </mxGeometry>
        </mxCell>
        <mxCell id="78" value="&lt;div style=&quot;font-size: 1px&quot;&gt;&lt;/div&gt;" style="verticalAlign=middle;align=center;vsdxID=92;fillColor=none;gradientColor=none;strokeColor=none;spacingTop=-3;spacingBottom=-3;spacingLeft=-3;spacingRight=-3;points=[];labelBackgroundColor=none;rounded=0;html=1;whiteSpace=wrap;" parent="1" vertex="1">
          <mxGeometry x="792" y="780" width="1" height="25" as="geometry" />
        </mxCell>
        <mxCell id="80" value="&lt;div style=&quot;font-size: 1px&quot;&gt;&lt;/div&gt;" style="verticalAlign=middle;align=center;vsdxID=94;fillColor=none;gradientColor=none;strokeColor=none;spacingTop=-3;spacingBottom=-3;spacingLeft=-3;spacingRight=-3;points=[];labelBackgroundColor=none;rounded=0;html=1;whiteSpace=wrap;" parent="1" vertex="1">
          <mxGeometry x="1341" y="1045" width="1" height="25" as="geometry" />
        </mxCell>
        <mxCell id="81" value="&lt;div style=&quot;font-size: 1px&quot;&gt;&lt;/div&gt;" style="verticalAlign=middle;align=center;vsdxID=95;fillColor=none;gradientColor=none;strokeColor=none;spacingTop=-3;spacingBottom=-3;spacingLeft=-3;spacingRight=-3;points=[];labelBackgroundColor=none;rounded=0;html=1;whiteSpace=wrap;" parent="1" vertex="1">
          <mxGeometry x="2677" y="733" width="1" height="25" as="geometry" />
        </mxCell>
        <mxCell id="158" style="vsdxID=96;edgeStyle=none;startArrow=none;endArrow=none;startSize=2;endSize=2;strokeWidth=4;strokeColor=#000000;spacingTop=-3;spacingBottom=-3;spacingLeft=-3;spacingRight=-3;verticalAlign=middle;html=1;labelBackgroundColor=none;rounded=0;" parent="1" edge="1">
          <mxGeometry relative="1" as="geometry">
            <mxPoint y="-1" as="offset" />
            <Array as="points" />
            <mxPoint x="2040" y="986" as="sourcePoint" />
            <mxPoint x="2040" y="1133" as="targetPoint" />
          </mxGeometry>
        </mxCell>
        <mxCell id="159" style="vsdxID=97;edgeStyle=none;startArrow=none;endArrow=none;startSize=2;endSize=2;strokeWidth=4;strokeColor=#000000;spacingTop=-3;spacingBottom=-3;spacingLeft=-3;spacingRight=-3;verticalAlign=middle;html=1;labelBackgroundColor=none;rounded=0;" parent="1" edge="1">
          <mxGeometry relative="1" as="geometry">
            <mxPoint as="offset" />
            <Array as="points" />
            <mxPoint x="2040" y="986" as="sourcePoint" />
            <mxPoint x="2316" y="986" as="targetPoint" />
          </mxGeometry>
        </mxCell>
        <mxCell id="160" style="vsdxID=98;edgeStyle=none;startArrow=none;endArrow=none;startSize=2;endSize=2;strokeWidth=4;strokeColor=#000000;spacingTop=-3;spacingBottom=-3;spacingLeft=-3;spacingRight=-3;verticalAlign=middle;html=1;labelBackgroundColor=none;rounded=0;" parent="1" edge="1">
          <mxGeometry relative="1" as="geometry">
            <mxPoint as="offset" />
            <Array as="points" />
            <mxPoint x="2040" y="1133" as="sourcePoint" />
            <mxPoint x="2316" y="1133" as="targetPoint" />
          </mxGeometry>
        </mxCell>
        <mxCell id="82" value="&lt;div style=&quot;font-size: 1px&quot;&gt;&lt;font style=&quot;font-size:25.15px;font-family:Arial;color:#000000;direction:ltr;letter-spacing:0px;line-height:120%;opacity:1&quot;&gt;Calculation of &lt;br/&gt;&lt;/font&gt;&lt;/div&gt;" style="verticalAlign=middle;align=center;vsdxID=99;fillColor=none;gradientColor=none;strokeColor=none;spacingTop=-3;spacingBottom=-3;spacingLeft=-3;spacingRight=-3;points=[];labelBackgroundColor=none;rounded=0;html=1;whiteSpace=wrap;" parent="1" vertex="1">
          <mxGeometry x="2185" y="1016" width="377" height="25" as="geometry" />
        </mxCell>
        <mxCell id="83" value="&lt;div style=&quot;font-size: 1px&quot;&gt;&lt;font style=&quot;font-size:25.15px;font-family:Arial;color:#000000;direction:ltr;letter-spacing:0px;line-height:120%;opacity:1&quot;&gt;low calorific value and&lt;br/&gt;&lt;/font&gt;&lt;/div&gt;" style="verticalAlign=middle;align=center;vsdxID=100;fillColor=none;gradientColor=none;strokeColor=none;spacingTop=-3;spacingBottom=-3;spacingLeft=-3;spacingRight=-3;points=[];labelBackgroundColor=none;rounded=0;html=1;whiteSpace=wrap;" parent="1" vertex="1">
          <mxGeometry x="2185" y="1048" width="578" height="25" as="geometry" />
        </mxCell>
        <mxCell id="84" value="&lt;div style=&quot;font-size: 1px&quot;&gt;&lt;font style=&quot;font-size:25.15px;font-family:Arial;color:#000000;direction:ltr;letter-spacing:0px;line-height:120%;opacity:1&quot;&gt;amount of energy&lt;br/&gt;&lt;/font&gt;&lt;/div&gt;" style="verticalAlign=middle;align=center;vsdxID=101;fillColor=none;gradientColor=none;strokeColor=none;spacingTop=-3;spacingBottom=-3;spacingLeft=-3;spacingRight=-3;points=[];labelBackgroundColor=none;rounded=0;html=1;whiteSpace=wrap;" parent="1" vertex="1">
          <mxGeometry x="2185" y="1080" width="402" height="25" as="geometry" />
        </mxCell>
        <mxCell id="161" style="vsdxID=102;edgeStyle=none;dashed=1;startArrow=none;endArrow=none;startSize=2;endSize=2;strokeWidth=4;strokeColor=#000000;spacingTop=-3;spacingBottom=-3;spacingLeft=-3;spacingRight=-3;verticalAlign=middle;html=1;labelBackgroundColor=none;rounded=0;" parent="1" edge="1">
          <mxGeometry relative="1" as="geometry">
            <mxPoint as="offset" />
            <Array as="points" />
            <mxPoint x="1769" y="1060" as="sourcePoint" />
            <mxPoint x="2040" y="1060" as="targetPoint" />
          </mxGeometry>
        </mxCell>
        <mxCell id="162" style="vsdxID=103;edgeStyle=none;startArrow=none;endArrow=none;startSize=2;endSize=2;strokeWidth=4;strokeColor=#000000;spacingTop=-3;spacingBottom=-3;spacingLeft=-3;spacingRight=-3;verticalAlign=middle;html=1;labelBackgroundColor=none;rounded=0;" parent="1" edge="1">
          <mxGeometry relative="1" as="geometry">
            <mxPoint y="-1" as="offset" />
            <Array as="points" />
            <mxPoint x="2044" y="1888" as="sourcePoint" />
            <mxPoint x="2044" y="2035" as="targetPoint" />
          </mxGeometry>
        </mxCell>
        <mxCell id="163" style="vsdxID=104;edgeStyle=none;startArrow=none;endArrow=none;startSize=2;endSize=2;strokeWidth=4;strokeColor=#000000;spacingTop=-3;spacingBottom=-3;spacingLeft=-3;spacingRight=-3;verticalAlign=middle;html=1;labelBackgroundColor=none;rounded=0;" parent="1" edge="1">
          <mxGeometry relative="1" as="geometry">
            <mxPoint as="offset" />
            <Array as="points" />
            <mxPoint x="2044" y="1888" as="sourcePoint" />
            <mxPoint x="2320" y="1888" as="targetPoint" />
          </mxGeometry>
        </mxCell>
        <mxCell id="164" style="vsdxID=105;edgeStyle=none;startArrow=none;endArrow=none;startSize=2;endSize=2;strokeWidth=4;strokeColor=#000000;spacingTop=-3;spacingBottom=-3;spacingLeft=-3;spacingRight=-3;verticalAlign=middle;html=1;labelBackgroundColor=none;rounded=0;" parent="1" edge="1">
          <mxGeometry relative="1" as="geometry">
            <mxPoint as="offset" />
            <Array as="points" />
            <mxPoint x="2044" y="2035" as="sourcePoint" />
            <mxPoint x="2320" y="2035" as="targetPoint" />
          </mxGeometry>
        </mxCell>
        <mxCell id="85" value="&lt;div style=&quot;font-size: 1px&quot;&gt;&lt;font style=&quot;font-size:25.15px;font-family:Arial;color:#000000;direction:ltr;letter-spacing:0px;line-height:120%;opacity:1&quot;&gt;Choise of method,&lt;br/&gt;&lt;/font&gt;&lt;/div&gt;" style="verticalAlign=middle;align=center;vsdxID=106;fillColor=none;gradientColor=none;strokeColor=none;spacingTop=-3;spacingBottom=-3;spacingLeft=-3;spacingRight=-3;points=[];labelBackgroundColor=none;rounded=0;html=1;whiteSpace=wrap;" parent="1" vertex="1">
          <mxGeometry x="2189" y="1918" width="427" height="25" as="geometry" />
        </mxCell>
        <mxCell id="86" value="&lt;div style=&quot;font-size: 1px&quot;&gt;&lt;font style=&quot;font-size:25.15px;font-family:Arial;color:#000000;direction:ltr;letter-spacing:0px;line-height:120%;opacity:1&quot;&gt;equipment and &lt;br/&gt;&lt;/font&gt;&lt;/div&gt;" style="verticalAlign=middle;align=center;vsdxID=107;fillColor=none;gradientColor=none;strokeColor=none;spacingTop=-3;spacingBottom=-3;spacingLeft=-3;spacingRight=-3;points=[];labelBackgroundColor=none;rounded=0;html=1;whiteSpace=wrap;" parent="1" vertex="1">
          <mxGeometry x="2189" y="1950" width="352" height="25" as="geometry" />
        </mxCell>
        <mxCell id="87" value="&lt;div style=&quot;font-size: 1px&quot;&gt;&lt;font style=&quot;font-size:25.15px;font-family:Arial;color:#000000;direction:ltr;letter-spacing:0px;line-height:120%;opacity:1&quot;&gt;feasibiliti study&lt;br/&gt;&lt;/font&gt;&lt;/div&gt;" style="verticalAlign=middle;align=center;vsdxID=108;fillColor=none;gradientColor=none;strokeColor=none;spacingTop=-3;spacingBottom=-3;spacingLeft=-3;spacingRight=-3;points=[];labelBackgroundColor=none;rounded=0;html=1;whiteSpace=wrap;" parent="1" vertex="1">
          <mxGeometry x="2189" y="1982" width="427" height="25" as="geometry" />
        </mxCell>
        <mxCell id="165" style="vsdxID=109;edgeStyle=none;dashed=1;startArrow=none;endArrow=none;startSize=2;endSize=2;strokeWidth=4;strokeColor=#000000;spacingTop=-3;spacingBottom=-3;spacingLeft=-3;spacingRight=-3;verticalAlign=middle;html=1;labelBackgroundColor=none;rounded=0;" parent="1" edge="1">
          <mxGeometry relative="1" as="geometry">
            <mxPoint as="offset" />
            <Array as="points" />
            <mxPoint x="1884" y="1962" as="sourcePoint" />
            <mxPoint x="2044" y="1962" as="targetPoint" />
          </mxGeometry>
        </mxCell>
        <mxCell id="88" value="&lt;div style=&quot;font-size: 1px&quot;&gt;&lt;/div&gt;" style="verticalAlign=middle;align=center;vsdxID=110;fillColor=none;gradientColor=none;strokeColor=none;spacingTop=-3;spacingBottom=-3;spacingLeft=-3;spacingRight=-3;points=[];labelBackgroundColor=none;rounded=0;html=1;whiteSpace=wrap;" parent="1" vertex="1">
          <mxGeometry x="806" y="527" width="1" height="25" as="geometry" />
        </mxCell>
        <mxCell id="89" style="vsdxID=111;fillColor=#ffffff;gradientColor=none;shape=stencil(UzV2Ls5ILEhVNTIoLinKz04tz0wpyVA1dlE1MsrMy0gtyiwBslSNXVWNndPyi1LTi/JL81Ig/IJEkEoQKze/DGRCBUSfAUiHkUElhGdoAOG7QZTmZOYhKTVFU2uKRy2qUiN8xuqSby6ac4EMhDfTMnNyIKGELI8eLEAhSJAauwIA);strokeColor=#000000;spacingTop=-3;spacingBottom=-3;spacingLeft=-3;spacingRight=-3;points=[];labelBackgroundColor=none;rounded=0;html=1;whiteSpace=wrap;" parent="1" vertex="1">
          <mxGeometry x="1125" y="1024" width="406" height="203" as="geometry" />
        </mxCell>
        <mxCell id="90" style="vsdxID=112;fillColor=#FFFFFF;gradientColor=none;shape=stencil(UzV2Ls5ILEhVNTIoLinKz04tz0wpyVA1dlE1MsrMy0gtyiwBslSNXVWNndPyi1LTi/JL81Ig/IJEkEoQKze/DGRCBUSfAUiHkUElhGdoAOG7QZTmZOYhKTVFU2uKRy2qUiN8xuqSby6ac4EMhDchIYQshx4kQCFIcBq7AgA=);strokeColor=#000000;strokeWidth=4;spacingTop=-3;spacingBottom=-3;spacingLeft=-3;spacingRight=-3;points=[];labelBackgroundColor=none;rounded=0;html=1;whiteSpace=wrap;" parent="1" vertex="1">
          <mxGeometry x="1125" y="1024" width="406" height="203" as="geometry" />
        </mxCell>
        <mxCell id="91" value="&lt;div style=&quot;font-size: 1px&quot;&gt;&lt;font style=&quot;font-size:25.15px;font-family:Arial;color:#000000;direction:ltr;letter-spacing:0px;line-height:120%;opacity:1&quot;&gt;Suitable fuel for&lt;br/&gt;&lt;/font&gt;&lt;/div&gt;" style="verticalAlign=middle;align=center;vsdxID=113;fillColor=none;gradientColor=none;strokeColor=none;spacingTop=-3;spacingBottom=-3;spacingLeft=-3;spacingRight=-3;points=[];labelBackgroundColor=none;rounded=0;html=1;whiteSpace=wrap;" parent="1" vertex="1">
          <mxGeometry x="908" y="1297" width="427" height="25" as="geometry" />
        </mxCell>
        <mxCell id="92" value="&lt;div style=&quot;font-size: 1px&quot;&gt;&lt;font style=&quot;font-size:25.15px;font-family:Arial;color:#000000;direction:ltr;letter-spacing:0px;line-height:120%;opacity:1&quot;&gt;thermal engines&lt;br/&gt;&lt;/font&gt;&lt;/div&gt;" style="verticalAlign=middle;align=center;vsdxID=114;fillColor=none;gradientColor=none;strokeColor=none;spacingTop=-3;spacingBottom=-3;spacingLeft=-3;spacingRight=-3;points=[];labelBackgroundColor=none;rounded=0;html=1;whiteSpace=wrap;" parent="1" vertex="1">
          <mxGeometry x="933" y="1329" width="377" height="25" as="geometry" />
        </mxCell>
        <mxCell id="93" style="vsdxID=115;fillColor=#ffffff;gradientColor=none;shape=stencil(nZBLDoAgDERP0z3SI/i5h4kojQgG8Xd7IY3RuGDhbqbz2iYDWC66nRVIsQTvRrVTFzRgBVKS1cpTiAqwBix759Xg3Wo79nObyKQmt6ULB++JtCHFya4Q7BtGDdkXeoe/4Az6E8y+z6JRPHX0ZAy3+c6/9cURV4/1BQ==);strokeColor=#000000;spacingTop=-3;spacingBottom=-3;spacingLeft=-3;spacingRight=-3;points=[];labelBackgroundColor=none;rounded=0;html=1;whiteSpace=wrap;" parent="1" vertex="1">
          <mxGeometry x="561" y="1442" width="317" height="108" as="geometry" />
        </mxCell>
        <mxCell id="94" style="vsdxID=116;fillColor=#FFFFFF;gradientColor=none;shape=stencil(nZBLDoAgDERP0z3SIyDew0QUooIB/N1eSGM0Lli4m+m8tskAiqDbRQFnIXo3qt10UQPWwLmxWnkTkwKUgKJ3Xg3erbYjv7SZzGp2W75w0B7LG5yd5CpGviF0MvaF3uEvuID+BIvvi2gSTx3U5Dv7VpdGVDvKCw==);strokeColor=#000000;strokeWidth=4;spacingTop=-3;spacingBottom=-3;spacingLeft=-3;spacingRight=-3;points=[];labelBackgroundColor=none;rounded=0;html=1;whiteSpace=wrap;" parent="1" vertex="1">
          <mxGeometry x="561" y="1442" width="317" height="108" as="geometry" />
        </mxCell>
        <mxCell id="95" value="&lt;div style=&quot;font-size: 1px&quot;&gt;&lt;font style=&quot;font-size:25.15px;font-family:Arial;color:#000000;direction:ltr;letter-spacing:0px;line-height:120%;opacity:1&quot;&gt;Transition to the choise &lt;br/&gt;&lt;/font&gt;&lt;/div&gt;" style="verticalAlign=middle;align=center;vsdxID=117;fillColor=none;gradientColor=none;strokeColor=none;spacingTop=-3;spacingBottom=-3;spacingLeft=-3;spacingRight=-3;points=[];labelBackgroundColor=none;rounded=0;html=1;whiteSpace=wrap;" parent="1" vertex="1">
          <mxGeometry x="406" y="1471" width="628" height="25" as="geometry" />
        </mxCell>
        <mxCell id="96" value="&lt;div style=&quot;font-size: 1px&quot;&gt;&lt;font style=&quot;font-size:25.15px;font-family:Arial;color:#000000;direction:ltr;letter-spacing:0px;line-height:120%;opacity:1&quot;&gt;of utilization method&lt;br/&gt;&lt;/font&gt;&lt;/div&gt;" style="verticalAlign=middle;align=center;vsdxID=118;fillColor=none;gradientColor=none;strokeColor=none;spacingTop=-3;spacingBottom=-3;spacingLeft=-3;spacingRight=-3;points=[];labelBackgroundColor=none;rounded=0;html=1;whiteSpace=wrap;" parent="1" vertex="1">
          <mxGeometry x="443" y="1510" width="528" height="25" as="geometry" />
        </mxCell>
        <mxCell id="166" style="vsdxID=119;edgeStyle=none;startArrow=none;endArrow=none;startSize=2;endSize=2;strokeWidth=4;strokeColor=#000000;spacingTop=-3;spacingBottom=-3;spacingLeft=-3;spacingRight=-3;verticalAlign=middle;html=1;labelBackgroundColor=none;rounded=0;" parent="1" edge="1">
          <mxGeometry relative="1" as="geometry">
            <mxPoint y="-1" as="offset" />
            <Array as="points" />
            <mxPoint x="720" y="1635" as="sourcePoint" />
            <mxPoint x="720" y="1550" as="targetPoint" />
          </mxGeometry>
        </mxCell>
        <mxCell id="97" style="vsdxID=120;fillColor=#FFFFFF;gradientColor=none;shape=stencil(fY9LDoMwDERP4y1KbUTFmtJ7IJE2EZCgEH63byKrIrBgN2M/jzxA1aSaUQKKyTvbyVW3XgG9AFEbJZ32QQHVQNXHOvl1djYt+7GJZFSDXWLCxnciXqDY2T0E+zejvTYJmpcZPU843uH/rCQ7Kyjlgzje4kbp7lohjLg+1T8=);strokeColor=#000000;strokeWidth=4;spacingTop=-3;spacingBottom=-3;spacingLeft=-3;spacingRight=-3;points=[];labelBackgroundColor=none;rounded=0;html=1;whiteSpace=wrap;" parent="1" vertex="1">
          <mxGeometry x="710" y="1599" width="20" height="20" as="geometry" />
        </mxCell>
        <mxCell id="98" style="vsdxID=121;fillColor=#ffffff;gradientColor=none;shape=stencil(nZBLDoAgDERP0z3SI/i5h4kojQgG8Xd7IY3RuGDhbqbz2iYDWC66nRVIsQTvRrVTFzRgBVKS1cpTiAqwBix759Xg3Wo79nObyKQmt6ULB++JtCHFya4Q7BtGDdkXeoe/4Az6E8y+z6JRPHX0ZAy3+c6/9cURV4/1BQ==);strokeColor=#000000;spacingTop=-3;spacingBottom=-3;spacingLeft=-3;spacingRight=-3;points=[];labelBackgroundColor=none;rounded=0;html=1;whiteSpace=wrap;" parent="1" vertex="1">
          <mxGeometry x="400" y="1757" width="413" height="91" as="geometry" />
        </mxCell>
        <mxCell id="99" style="vsdxID=122;fillColor=#FFFFFF;gradientColor=none;shape=stencil(nZBLDoAgDERP0z3SIyDew0QUooIB/N1eSGM0Lli4m+m8tskAiqDbRQFnIXo3qt10UQPWwLmxWnkTkwKUgKJ3Xg3erbYjv7SZzGp2W75w0B7LG5yd5CpGviF0MvaF3uEvuID+BIvvi2gSTx3U5Dv7VpdGVDvKCw==);strokeColor=#000000;strokeWidth=4;spacingTop=-3;spacingBottom=-3;spacingLeft=-3;spacingRight=-3;points=[];labelBackgroundColor=none;rounded=0;html=1;whiteSpace=wrap;" parent="1" vertex="1">
          <mxGeometry x="400" y="1757" width="413" height="91" as="geometry" />
        </mxCell>
        <mxCell id="100" value="&lt;div style=&quot;font-size: 1px&quot;&gt;&lt;font style=&quot;font-size:25.15px;font-family:Arial;color:#000000;direction:ltr;letter-spacing:0px;line-height:120%;opacity:1&quot;&gt;GPU with cogeneration cycle&lt;br/&gt;&lt;/font&gt;&lt;/div&gt;" style="verticalAlign=middle;align=center;vsdxID=123;fillColor=none;gradientColor=none;strokeColor=none;spacingTop=-3;spacingBottom=-3;spacingLeft=-3;spacingRight=-3;points=[];labelBackgroundColor=none;rounded=0;html=1;whiteSpace=wrap;" parent="1" vertex="1">
          <mxGeometry x="288" y="1790" width="679" height="25" as="geometry" />
        </mxCell>
        <mxCell id="101" style="vsdxID=124;fillColor=#ffffff;gradientColor=none;shape=stencil(nZBLDoAgDERP0z3SI/i5h4kojQgG8Xd7IY3RuGDhbqbz2iYDWC66nRVIsQTvRrVTFzRgBVKS1cpTiAqwBix759Xg3Wo79nObyKQmt6ULB++JtCHFya4Q7BtGDdkXeoe/4Az6E8y+z6JRPHX0ZAy3+c6/9cURV4/1BQ==);strokeColor=#000000;spacingTop=-3;spacingBottom=-3;spacingLeft=-3;spacingRight=-3;points=[];labelBackgroundColor=none;rounded=0;html=1;whiteSpace=wrap;" parent="1" vertex="1">
          <mxGeometry x="925" y="1757" width="400" height="90" as="geometry" />
        </mxCell>
        <mxCell id="102" style="vsdxID=125;fillColor=#FFFFFF;gradientColor=none;shape=stencil(nZBLDoAgDERP0z3SIyDew0QUooIB/N1eSGM0Lli4m+m8tskAiqDbRQFnIXo3qt10UQPWwLmxWnkTkwKUgKJ3Xg3erbYjv7SZzGp2W75w0B7LG5yd5CpGviF0MvaF3uEvuID+BIvvi2gSTx3U5Dv7VpdGVDvKCw==);strokeColor=#000000;strokeWidth=4;spacingTop=-3;spacingBottom=-3;spacingLeft=-3;spacingRight=-3;points=[];labelBackgroundColor=none;rounded=0;html=1;whiteSpace=wrap;" parent="1" vertex="1">
          <mxGeometry x="925" y="1757" width="400" height="90" as="geometry" />
        </mxCell>
        <mxCell id="103" value="&lt;div style=&quot;font-size: 1px&quot;&gt;&lt;font style=&quot;font-size:25.15px;font-family:Arial;color:#000000;direction:ltr;letter-spacing:0px;line-height:120%;opacity:1&quot;&gt;  DCP + Cogeneration GPU &lt;br/&gt;&lt;/font&gt;&lt;/div&gt;" style="verticalAlign=middle;align=center;vsdxID=126;fillColor=none;gradientColor=none;strokeColor=none;spacingTop=-3;spacingBottom=-3;spacingLeft=-3;spacingRight=-3;points=[];labelBackgroundColor=none;rounded=0;html=1;whiteSpace=wrap;" parent="1" vertex="1">
          <mxGeometry x="837" y="1800" width="628" height="25" as="geometry" />
        </mxCell>
        <mxCell id="104" value="&lt;div style=&quot;font-size: 1px&quot;&gt;&lt;/div&gt;" style="verticalAlign=middle;align=center;vsdxID=127;fillColor=none;gradientColor=none;strokeColor=none;spacingTop=-3;spacingBottom=-3;spacingLeft=-3;spacingRight=-3;points=[];labelBackgroundColor=none;rounded=0;html=1;whiteSpace=wrap;" parent="1" vertex="1">
          <mxGeometry x="1569" y="1778" width="1" height="25" as="geometry" />
        </mxCell>
        <mxCell id="105" style="vsdxID=128;fillColor=#ffffff;gradientColor=none;shape=stencil(nZBLDoAgDERP0z3SI/i5h4kojQgG8Xd7IY3RuGDhbqbz2iYDWC66nRVIsQTvRrVTFzRgBVKS1cpTiAqwBix759Xg3Wo79nObyKQmt6ULB++JtCHFya4Q7BtGDdkXeoe/4Az6E8y+z6JRPHX0ZAy3+c6/9cURV4/1BQ==);strokeColor=#000000;spacingTop=-3;spacingBottom=-3;spacingLeft=-3;spacingRight=-3;points=[];labelBackgroundColor=none;rounded=0;html=1;whiteSpace=wrap;" parent="1" vertex="1">
          <mxGeometry x="1440" y="1757" width="411" height="88" as="geometry" />
        </mxCell>
        <mxCell id="106" style="vsdxID=129;fillColor=#FFFFFF;gradientColor=none;shape=stencil(nZBLDoAgDERP0z3SIyDew0QUooIB/N1eSGM0Lli4m+m8tskAiqDbRQFnIXo3qt10UQPWwLmxWnkTkwKUgKJ3Xg3erbYjv7SZzGp2W75w0B7LG5yd5CpGviF0MvaF3uEvuID+BIvvi2gSTx3U5Dv7VpdGVDvKCw==);strokeColor=#000000;strokeWidth=4;spacingTop=-3;spacingBottom=-3;spacingLeft=-3;spacingRight=-3;points=[];labelBackgroundColor=none;rounded=0;html=1;whiteSpace=wrap;" parent="1" vertex="1">
          <mxGeometry x="1440" y="1757" width="411" height="88" as="geometry" />
        </mxCell>
        <mxCell id="107" value="&lt;div style=&quot;font-size: 1px&quot;&gt;&lt;font style=&quot;font-size:25.15px;font-family:Arial;color:#000000;direction:ltr;letter-spacing:0px;line-height:120%;opacity:1&quot;&gt;            DCP + AR               &lt;br/&gt;&lt;/font&gt;&lt;/div&gt;" style="verticalAlign=middle;align=center;vsdxID=130;fillColor=none;gradientColor=none;strokeColor=none;spacingTop=-3;spacingBottom=-3;spacingLeft=-3;spacingRight=-3;points=[];labelBackgroundColor=none;rounded=0;html=1;whiteSpace=wrap;" parent="1" vertex="1">
          <mxGeometry x="1205" y="1790" width="880" height="25" as="geometry" />
        </mxCell>
        <mxCell id="167" style="vsdxID=131;edgeStyle=none;startArrow=none;endArrow=none;startSize=2;endSize=2;strokeWidth=4;strokeColor=#000000;spacingTop=-3;spacingBottom=-3;spacingLeft=-3;spacingRight=-3;verticalAlign=middle;html=1;labelBackgroundColor=none;rounded=0;" parent="1" edge="1">
          <mxGeometry relative="1" as="geometry">
            <mxPoint y="-1" as="offset" />
            <Array as="points" />
            <mxPoint x="606" y="1748" as="sourcePoint" />
            <mxPoint x="608" y="1677" as="targetPoint" />
          </mxGeometry>
        </mxCell>
        <mxCell id="108" style="vsdxID=132;fillColor=#FFFFFF;gradientColor=none;shape=stencil(fY9LDoMwDERP4y0KNogD8LkHEimJCgkKaYHbN5GFCF2wm7GfRx6gelX9IgHF6p19y00PXgE1gKiNkk77oIBaoPplnRyd/ZiB/dJHMqrZfmPCznciXqA42OWCfcfopE2CFlVWVjccn/Az68rGrEjxIK6vuFC6+28QRtye2h8=);strokeColor=#000000;strokeWidth=4;spacingTop=-3;spacingBottom=-3;spacingLeft=-3;spacingRight=-3;points=[];labelBackgroundColor=none;rounded=0;html=1;whiteSpace=wrap;" parent="1" vertex="1">
          <mxGeometry x="597" y="1712" width="19" height="20" as="geometry" />
        </mxCell>
        <mxCell id="168" style="vsdxID=133;edgeStyle=none;startArrow=none;endArrow=none;startSize=2;endSize=2;strokeWidth=4;strokeColor=#000000;spacingTop=-3;spacingBottom=-3;spacingLeft=-3;spacingRight=-3;verticalAlign=middle;html=1;labelBackgroundColor=none;rounded=0;" parent="1" edge="1">
          <mxGeometry relative="1" as="geometry">
            <mxPoint x="1" as="offset" />
            <Array as="points" />
            <mxPoint x="1125" y="1748" as="sourcePoint" />
            <mxPoint x="1124" y="1677" as="targetPoint" />
          </mxGeometry>
        </mxCell>
        <mxCell id="109" style="vsdxID=134;fillColor=#FFFFFF;gradientColor=none;shape=stencil(UzV2Ls5ILEhVNTIoLinKz04tz0wpyVA1dlE1MsrMy0gtyiwBslSNXVWNndPyi1LTi/JL81Ig/IJEkEoQKze/DGRCBUSfAUiHkUElhGdoAOG7QZTmZOYhKTU11DM1QVVuaaFnYo5bB8w4mHoM5UAGwmEQPyHLoXsCKAQJAGNXAA==);strokeColor=#000000;strokeWidth=4;spacingTop=-3;spacingBottom=-3;spacingLeft=-3;spacingRight=-3;points=[];labelBackgroundColor=none;rounded=0;html=1;whiteSpace=wrap;" parent="1" vertex="1">
          <mxGeometry x="1115" y="1713" width="20" height="20" as="geometry" />
        </mxCell>
        <mxCell id="169" style="vsdxID=135;edgeStyle=none;startArrow=none;endArrow=none;startSize=2;endSize=2;strokeWidth=4;strokeColor=#000000;spacingTop=-3;spacingBottom=-3;spacingLeft=-3;spacingRight=-3;verticalAlign=middle;html=1;labelBackgroundColor=none;rounded=0;" parent="1" edge="1">
          <mxGeometry relative="1" as="geometry">
            <mxPoint as="offset" />
            <Array as="points" />
            <mxPoint x="1645" y="1748" as="sourcePoint" />
            <mxPoint x="1645" y="1676" as="targetPoint" />
          </mxGeometry>
        </mxCell>
        <mxCell id="110" style="vsdxID=136;fillColor=#FFFFFF;gradientColor=none;shape=stencil(UzV2Ls5ILEhVNTIoLinKz04tz0wpyVA1dlE1MsrMy0gtyiwBslSNXVWNndPyi1LTi/JL81Ig/IJEkEoQKze/DGRCBUSfAUiHkUElhGdoAOG7QZTmZOYhKTU10APJISu3tNQzt8CtA2YcTD2GciAD4TCIn5Dl0D0BFIIEgLErAA==);strokeColor=#000000;strokeWidth=4;spacingTop=-3;spacingBottom=-3;spacingLeft=-3;spacingRight=-3;points=[];labelBackgroundColor=none;rounded=0;html=1;whiteSpace=wrap;" parent="1" vertex="1">
          <mxGeometry x="1635" y="1713" width="20" height="20" as="geometry" />
        </mxCell>
        <mxCell id="111" style="vsdxID=137;fillColor=#ffffff;gradientColor=none;shape=stencil(nZBLDoAgDERP0z3SI/i5h4kojQgG8Xd7IY3RuGDhbqbz2iYDWC66nRVIsQTvRrVTFzRgBVKS1cpTiAqwBix759Xg3Wo79nObyKQmt6ULB++JtCHFya4Q7BtGDdkXeoe/4Az6E8y+z6JRPHX0ZAy3+c6/9cURV4/1BQ==);strokeColor=#000000;spacingTop=-3;spacingBottom=-3;spacingLeft=-3;spacingRight=-3;points=[];labelBackgroundColor=none;rounded=0;html=1;whiteSpace=wrap;" parent="1" vertex="1">
          <mxGeometry x="408" y="1927" width="400" height="76" as="geometry" />
        </mxCell>
        <mxCell id="112" style="vsdxID=138;fillColor=#FFFFFF;gradientColor=none;shape=stencil(nZBLDoAgDERP0z3SIyDew0QUooIB/N1eSGM0Lli4m+m8tskAiqDbRQFnIXo3qt10UQPWwLmxWnkTkwKUgKJ3Xg3erbYjv7SZzGp2W75w0B7LG5yd5CpGviF0MvaF3uEvuID+BIvvi2gSTx3U5Dv7VpdGVDvKCw==);strokeColor=#000000;strokeWidth=4;spacingTop=-3;spacingBottom=-3;spacingLeft=-3;spacingRight=-3;points=[];labelBackgroundColor=none;rounded=0;html=1;whiteSpace=wrap;" parent="1" vertex="1">
          <mxGeometry x="408" y="1927" width="400" height="76" as="geometry" />
        </mxCell>
        <mxCell id="113" value="&lt;div style=&quot;font-size: 1px&quot;&gt;&lt;font style=&quot;font-size:25.15px;font-family:Arial;color:#000000;direction:ltr;letter-spacing:0px;line-height:120%;opacity:1&quot;&gt;  Choise of equipment&lt;br/&gt;&lt;/font&gt;&lt;/div&gt;" style="verticalAlign=middle;align=center;vsdxID=139;fillColor=none;gradientColor=none;strokeColor=none;spacingTop=-3;spacingBottom=-3;spacingLeft=-3;spacingRight=-3;points=[];labelBackgroundColor=none;rounded=0;html=1;whiteSpace=wrap;" parent="1" vertex="1">
          <mxGeometry x="351.5" y="1957" width="528" height="25" as="geometry" />
        </mxCell>
        <mxCell id="114" style="vsdxID=140;fillColor=#ffffff;gradientColor=none;shape=stencil(nZBLDoAgDERP0z3SI/i5h4kojQgG8Xd7IY3RuGDhbqbz2iYDWC66nRVIsQTvRrVTFzRgBVKS1cpTiAqwBix759Xg3Wo79nObyKQmt6ULB++JtCHFya4Q7BtGDdkXeoe/4Az6E8y+z6JRPHX0ZAy3+c6/9cURV4/1BQ==);strokeColor=#000000;spacingTop=-3;spacingBottom=-3;spacingLeft=-3;spacingRight=-3;points=[];labelBackgroundColor=none;rounded=0;html=1;whiteSpace=wrap;" parent="1" vertex="1">
          <mxGeometry x="925" y="1928" width="400" height="76" as="geometry" />
        </mxCell>
        <mxCell id="115" style="vsdxID=141;fillColor=#FFFFFF;gradientColor=none;shape=stencil(nZBLDoAgDERP0z3SIyDew0QUooIB/N1eSGM0Lli4m+m8tskAiqDbRQFnIXo3qt10UQPWwLmxWnkTkwKUgKJ3Xg3erbYjv7SZzGp2W75w0B7LG5yd5CpGviF0MvaF3uEvuID+BIvvi2gSTx3U5Dv7VpdGVDvKCw==);strokeColor=#000000;strokeWidth=4;spacingTop=-3;spacingBottom=-3;spacingLeft=-3;spacingRight=-3;points=[];labelBackgroundColor=none;rounded=0;html=1;whiteSpace=wrap;" parent="1" vertex="1">
          <mxGeometry x="925" y="1928" width="400" height="76" as="geometry" />
        </mxCell>
        <mxCell id="116" value="&lt;div style=&quot;font-size: 1px&quot;&gt;&lt;font style=&quot;font-size:25.15px;font-family:Arial;color:#000000;direction:ltr;letter-spacing:0px;line-height:120%;opacity:1&quot;&gt; Choise of equipment&lt;br/&gt;&lt;/font&gt;&lt;/div&gt;" style="verticalAlign=middle;align=center;vsdxID=142;fillColor=none;gradientColor=none;strokeColor=none;spacingTop=-3;spacingBottom=-3;spacingLeft=-3;spacingRight=-3;points=[];labelBackgroundColor=none;rounded=0;html=1;whiteSpace=wrap;" parent="1" vertex="1">
          <mxGeometry x="895" y="1955.5" width="503" height="25" as="geometry" />
        </mxCell>
        <mxCell id="117" style="vsdxID=143;fillColor=#ffffff;gradientColor=none;shape=stencil(nZBLDoAgDERP0z3SI/i5h4kojQgG8Xd7IY3RuGDhbqbz2iYDWC66nRVIsQTvRrVTFzRgBVKS1cpTiAqwBix759Xg3Wo79nObyKQmt6ULB++JtCHFya4Q7BtGDdkXeoe/4Az6E8y+z6JRPHX0ZAy3+c6/9cURV4/1BQ==);strokeColor=#000000;spacingTop=-3;spacingBottom=-3;spacingLeft=-3;spacingRight=-3;points=[];labelBackgroundColor=none;rounded=0;html=1;whiteSpace=wrap;" parent="1" vertex="1">
          <mxGeometry x="1434" y="1928" width="420" height="80" as="geometry" />
        </mxCell>
        <mxCell id="118" style="vsdxID=144;fillColor=#FFFFFF;gradientColor=none;shape=stencil(nZBLDoAgDERP0z3SIyDew0QUooIB/N1eSGM0Lli4m+m8tskAiqDbRQFnIXo3qt10UQPWwLmxWnkTkwKUgKJ3Xg3erbYjv7SZzGp2W75w0B7LG5yd5CpGviF0MvaF3uEvuID+BIvvi2gSTx3U5Dv7VpdGVDvKCw==);strokeColor=#000000;strokeWidth=4;spacingTop=-3;spacingBottom=-3;spacingLeft=-3;spacingRight=-3;points=[];labelBackgroundColor=none;rounded=0;html=1;whiteSpace=wrap;" parent="1" vertex="1">
          <mxGeometry x="1434" y="1928" width="420" height="80" as="geometry" />
        </mxCell>
        <mxCell id="119" value="&lt;div style=&quot;font-size: 1px&quot;&gt;&lt;font style=&quot;font-size:25.15px;font-family:Arial;color:#000000;direction:ltr;letter-spacing:0px;line-height:120%;opacity:1&quot;&gt;          Choise of equipment      &lt;br/&gt;&lt;/font&gt;&lt;/div&gt;" style="verticalAlign=middle;align=center;vsdxID=145;fillColor=none;gradientColor=none;strokeColor=none;spacingTop=-3;spacingBottom=-3;spacingLeft=-3;spacingRight=-3;points=[];labelBackgroundColor=none;rounded=0;html=1;whiteSpace=wrap;" parent="1" vertex="1">
          <mxGeometry x="1209" y="1957" width="880" height="25" as="geometry" />
        </mxCell>
        <mxCell id="170" style="vsdxID=146;edgeStyle=none;startArrow=none;endArrow=none;startSize=2;endSize=2;strokeWidth=4;strokeColor=#000000;spacingTop=-3;spacingBottom=-3;spacingLeft=-3;spacingRight=-3;verticalAlign=middle;html=1;labelBackgroundColor=none;rounded=0;" parent="1" edge="1">
          <mxGeometry relative="1" as="geometry">
            <mxPoint x="1" as="offset" />
            <Array as="points" />
            <mxPoint x="608" y="1918" as="sourcePoint" />
            <mxPoint x="606" y="1849" as="targetPoint" />
          </mxGeometry>
        </mxCell>
        <mxCell id="120" style="vsdxID=147;fillColor=#FFFFFF;gradientColor=none;shape=stencil(UzV2Ls5ILEhVNTIoLinKz04tz0wpyVA1dlE1MsrMy0gtyiwBslSNXVWNndPyi1LTi/JL81Ig/IJEkEoQKze/DGRCBUSfAUiHkUElhGdoAOG7QZTmZOYhKTU10jM2QVVuaa5nZolbB8w4mHoM5UAGwmEQPyHLoXsCKAQJAGNXAA==);strokeColor=#000000;strokeWidth=4;spacingTop=-3;spacingBottom=-3;spacingLeft=-3;spacingRight=-3;points=[];labelBackgroundColor=none;rounded=0;html=1;whiteSpace=wrap;" parent="1" vertex="1">
          <mxGeometry x="597" y="1882" width="19" height="20" as="geometry" />
        </mxCell>
        <mxCell id="171" style="vsdxID=148;edgeStyle=none;startArrow=none;endArrow=none;startSize=2;endSize=2;strokeWidth=4;strokeColor=#000000;spacingTop=-3;spacingBottom=-3;spacingLeft=-3;spacingRight=-3;verticalAlign=middle;html=1;labelBackgroundColor=none;rounded=0;" parent="1" edge="1">
          <mxGeometry relative="1" as="geometry">
            <mxPoint as="offset" />
            <Array as="points" />
            <mxPoint x="1125" y="1919" as="sourcePoint" />
            <mxPoint x="1125" y="1848" as="targetPoint" />
          </mxGeometry>
        </mxCell>
        <mxCell id="121" style="vsdxID=149;fillColor=#FFFFFF;gradientColor=none;shape=stencil(fY9ZCoAwDERPk/+a4Alc7iFYbVFbqXW7vS1BXED/ZpKXYQKUTaoaJaCYvLOdXHXtFVAOiNoo6bQPCqgAyhrrZOvsbGr2YxXJqAa7xISN70S8QLGzSwT7ktFemxuaPln8Y8+gj+AgrkL8y333Lh9G/DgVBw==);strokeColor=#000000;strokeWidth=4;spacingTop=-3;spacingBottom=-3;spacingLeft=-3;spacingRight=-3;points=[];labelBackgroundColor=none;rounded=0;html=1;whiteSpace=wrap;" parent="1" vertex="1">
          <mxGeometry x="1115" y="1884" width="20" height="20" as="geometry" />
        </mxCell>
        <mxCell id="172" style="vsdxID=150;edgeStyle=none;startArrow=none;endArrow=none;startSize=2;endSize=2;strokeWidth=4;strokeColor=#000000;spacingTop=-3;spacingBottom=-3;spacingLeft=-3;spacingRight=-3;verticalAlign=middle;html=1;labelBackgroundColor=none;rounded=0;" parent="1" edge="1">
          <mxGeometry relative="1" as="geometry">
            <mxPoint as="offset" />
            <Array as="points" />
            <mxPoint x="1644" y="1919" as="sourcePoint" />
            <mxPoint x="1645" y="1846" as="targetPoint" />
          </mxGeometry>
        </mxCell>
        <mxCell id="122" style="vsdxID=151;fillColor=#FFFFFF;gradientColor=none;shape=stencil(fY9LDoMwDERP4y1K7Eqw53MPJFISAQkKobS3byKrInTBbsZ+HnmA6k33qwIUW/BuUocZggZqANFYrbwJUQG1QPXTeTV6t9uB/donMqnFvVLCm+9EukDxYScF+47R2dgMfVRFRRcc7/Bf1pktC1nmfBTnW9wo3/1XiCOuT+0X);strokeColor=#000000;strokeWidth=4;spacingTop=-3;spacingBottom=-3;spacingLeft=-3;spacingRight=-3;points=[];labelBackgroundColor=none;rounded=0;html=1;whiteSpace=wrap;" parent="1" vertex="1">
          <mxGeometry x="1634" y="1884" width="20" height="20" as="geometry" />
        </mxCell>
        <mxCell id="123" style="vsdxID=152;fillColor=#ffffff;gradientColor=none;shape=stencil(nZBLDoAgDERP0z3SI/i5h4kojQgG8Xd7IY3RuGDhbqbz2iYDWC66nRVIsQTvRrVTFzRgBVKS1cpTiAqwBix759Xg3Wo79nObyKQmt6ULB++JtCHFya4Q7BtGDdkXeoe/4Az6E8y+z6JRPHX0ZAy3+c6/9cURV4/1BQ==);strokeColor=#000000;spacingTop=-3;spacingBottom=-3;spacingLeft=-3;spacingRight=-3;points=[];labelBackgroundColor=none;rounded=0;html=1;whiteSpace=wrap;" parent="1" vertex="1">
          <mxGeometry x="499" y="2091" width="217" height="76" as="geometry" />
        </mxCell>
        <mxCell id="124" style="vsdxID=153;fillColor=#FFFFFF;gradientColor=none;shape=stencil(nZBLDoAgDERP0z3SIyDew0QUooIB/N1eSGM0Lli4m+m8tskAiqDbRQFnIXo3qt10UQPWwLmxWnkTkwKUgKJ3Xg3erbYjv7SZzGp2W75w0B7LG5yd5CpGviF0MvaF3uEvuID+BIvvi2gSTx3U5Dv7VpdGVDvKCw==);strokeColor=#000000;strokeWidth=4;spacingTop=-3;spacingBottom=-3;spacingLeft=-3;spacingRight=-3;points=[];labelBackgroundColor=none;rounded=0;html=1;whiteSpace=wrap;" parent="1" vertex="1">
          <mxGeometry x="499" y="2091" width="217" height="76" as="geometry" />
        </mxCell>
        <mxCell id="125" value="&lt;div style=&quot;font-size: 1px&quot;&gt;&lt;font style=&quot;font-size:25.15px;font-family:Arial;color:#000000;direction:ltr;letter-spacing:0px;line-height:120%;opacity:1&quot;&gt;Feasibiliti study&lt;br/&gt;&lt;/font&gt;&lt;/div&gt;" style="verticalAlign=middle;align=center;vsdxID=154;fillColor=none;gradientColor=none;strokeColor=none;spacingTop=-3;spacingBottom=-3;spacingLeft=-3;spacingRight=-3;points=[];labelBackgroundColor=none;rounded=0;html=1;whiteSpace=wrap;" parent="1" vertex="1">
          <mxGeometry x="400" y="2116.5" width="427" height="25" as="geometry" />
        </mxCell>
        <mxCell id="126" style="vsdxID=155;fillColor=#ffffff;gradientColor=none;shape=stencil(nZBLDoAgDERP0z3SI/i5h4kojQgG8Xd7IY3RuGDhbqbz2iYDWC66nRVIsQTvRrVTFzRgBVKS1cpTiAqwBix759Xg3Wo79nObyKQmt6ULB++JtCHFya4Q7BtGDdkXeoe/4Az6E8y+z6JRPHX0ZAy3+c6/9cURV4/1BQ==);strokeColor=#000000;spacingTop=-3;spacingBottom=-3;spacingLeft=-3;spacingRight=-3;points=[];labelBackgroundColor=none;rounded=0;html=1;whiteSpace=wrap;" parent="1" vertex="1">
          <mxGeometry x="1016" y="2091" width="217" height="76" as="geometry" />
        </mxCell>
        <mxCell id="127" style="vsdxID=156;fillColor=#FFFFFF;gradientColor=none;shape=stencil(nZBLDoAgDERP0z3SIyDew0QUooIB/N1eSGM0Lli4m+m8tskAiqDbRQFnIXo3qt10UQPWwLmxWnkTkwKUgKJ3Xg3erbYjv7SZzGp2W75w0B7LG5yd5CpGviF0MvaF3uEvuID+BIvvi2gSTx3U5Dv7VpdGVDvKCw==);strokeColor=#000000;strokeWidth=4;spacingTop=-3;spacingBottom=-3;spacingLeft=-3;spacingRight=-3;points=[];labelBackgroundColor=none;rounded=0;html=1;whiteSpace=wrap;" parent="1" vertex="1">
          <mxGeometry x="1016" y="2091" width="217" height="76" as="geometry" />
        </mxCell>
        <mxCell id="128" value="&lt;div style=&quot;font-size: 1px&quot;&gt;&lt;font style=&quot;font-size:25.15px;font-family:Arial;color:#000000;direction:ltr;letter-spacing:0px;line-height:120%;opacity:1&quot;&gt;Feasibiliti study&lt;br/&gt;&lt;/font&gt;&lt;/div&gt;" style="verticalAlign=middle;align=center;vsdxID=157;fillColor=none;gradientColor=none;strokeColor=none;spacingTop=-3;spacingBottom=-3;spacingLeft=-3;spacingRight=-3;points=[];labelBackgroundColor=none;rounded=0;html=1;whiteSpace=wrap;" parent="1" vertex="1">
          <mxGeometry x="916" y="2119" width="427" height="25" as="geometry" />
        </mxCell>
        <mxCell id="129" style="vsdxID=158;fillColor=#ffffff;gradientColor=none;shape=stencil(nZBLDoAgDERP0z3SI/i5h4kojQgG8Xd7IY3RuGDhbqbz2iYDWC66nRVIsQTvRrVTFzRgBVKS1cpTiAqwBix759Xg3Wo79nObyKQmt6ULB++JtCHFya4Q7BtGDdkXeoe/4Az6E8y+z6JRPHX0ZAy3+c6/9cURV4/1BQ==);strokeColor=#000000;spacingTop=-3;spacingBottom=-3;spacingLeft=-3;spacingRight=-3;points=[];labelBackgroundColor=none;rounded=0;html=1;whiteSpace=wrap;" parent="1" vertex="1">
          <mxGeometry x="1537" y="2096" width="217" height="76" as="geometry" />
        </mxCell>
        <mxCell id="130" style="vsdxID=159;fillColor=#FFFFFF;gradientColor=none;shape=stencil(nZBLDoAgDERP0z3SIyDew0QUooIB/N1eSGM0Lli4m+m8tskAiqDbRQFnIXo3qt10UQPWwLmxWnkTkwKUgKJ3Xg3erbYjv7SZzGp2W75w0B7LG5yd5CpGviF0MvaF3uEvuID+BIvvi2gSTx3U5Dv7VpdGVDvKCw==);strokeColor=#000000;strokeWidth=4;spacingTop=-3;spacingBottom=-3;spacingLeft=-3;spacingRight=-3;points=[];labelBackgroundColor=none;rounded=0;html=1;whiteSpace=wrap;" parent="1" vertex="1">
          <mxGeometry x="1537" y="2096" width="217" height="76" as="geometry" />
        </mxCell>
        <mxCell id="131" value="&lt;div style=&quot;font-size: 1px&quot;&gt;&lt;font style=&quot;font-size:25.15px;font-family:Arial;color:#000000;direction:ltr;letter-spacing:0px;line-height:120%;opacity:1&quot;&gt;Feasibiliti study&lt;br/&gt;&lt;/font&gt;&lt;/div&gt;" style="verticalAlign=middle;align=center;vsdxID=160;fillColor=none;gradientColor=none;strokeColor=none;spacingTop=-3;spacingBottom=-3;spacingLeft=-3;spacingRight=-3;points=[];labelBackgroundColor=none;rounded=0;html=1;whiteSpace=wrap;" parent="1" vertex="1">
          <mxGeometry x="1427" y="2121.5" width="427" height="25" as="geometry" />
        </mxCell>
        <mxCell id="173" style="vsdxID=161;edgeStyle=none;startArrow=none;endArrow=none;startSize=2;endSize=2;strokeWidth=4;strokeColor=#000000;spacingTop=-3;spacingBottom=-3;spacingLeft=-3;spacingRight=-3;verticalAlign=middle;html=1;labelBackgroundColor=none;rounded=0;" parent="1" edge="1">
          <mxGeometry relative="1" as="geometry">
            <mxPoint x="1" as="offset" />
            <Array as="points" />
            <mxPoint x="1645" y="2088" as="sourcePoint" />
            <mxPoint x="1644" y="2008" as="targetPoint" />
          </mxGeometry>
        </mxCell>
        <mxCell id="132" style="vsdxID=162;fillColor=#FFFFFF;gradientColor=none;shape=stencil(UzV2Ls5ILEhVNTIoLinKz04tz0wpyVA1dlE1MsrMy0gtyiwBslSNXVWNndPyi1LTi/JL81Ig/IJEkEoQKze/DGRCBUSfAUiHkUElhGdoAOG7QZTmZOYhKTU11DM2Q1VuaaFnZopbB8w4mHoM5UAGwmEQPyHLoXsCKAQJAGNXAA==);strokeColor=#000000;strokeWidth=4;spacingTop=-3;spacingBottom=-3;spacingLeft=-3;spacingRight=-3;points=[];labelBackgroundColor=none;rounded=0;html=1;whiteSpace=wrap;" parent="1" vertex="1">
          <mxGeometry x="1635" y="2052" width="20" height="20" as="geometry" />
        </mxCell>
        <mxCell id="174" style="vsdxID=163;edgeStyle=none;startArrow=none;endArrow=none;startSize=2;endSize=2;strokeWidth=4;strokeColor=#000000;spacingTop=-3;spacingBottom=-3;spacingLeft=-3;spacingRight=-3;verticalAlign=middle;html=1;labelBackgroundColor=none;rounded=0;" parent="1" edge="1">
          <mxGeometry relative="1" as="geometry">
            <mxPoint as="offset" />
            <Array as="points" />
            <mxPoint x="1125" y="2082" as="sourcePoint" />
            <mxPoint x="1125" y="2004" as="targetPoint" />
          </mxGeometry>
        </mxCell>
        <mxCell id="133" style="vsdxID=164;fillColor=#FFFFFF;gradientColor=none;shape=stencil(fY9LDoMwDERP4y1KbUTFmtJ7IJE2EZCgEH63byKrIrBgN2M/jzxA1aSaUQKKyTvbyVW3XgG9AFEbJZ32QQHVQNXHOvl1djYt+7GJZFSDXWLCxnciXqDY2T0E+zejvTYJmpdZ8TzheIf/s5LsjCjlgzje4kbp7lohjLg+1T8=);strokeColor=#000000;strokeWidth=4;spacingTop=-3;spacingBottom=-3;spacingLeft=-3;spacingRight=-3;points=[];labelBackgroundColor=none;rounded=0;html=1;whiteSpace=wrap;" parent="1" vertex="1">
          <mxGeometry x="1115" y="2046" width="20" height="20" as="geometry" />
        </mxCell>
        <mxCell id="175" style="vsdxID=165;edgeStyle=none;startArrow=none;endArrow=none;startSize=2;endSize=2;strokeWidth=4;strokeColor=#000000;spacingTop=-3;spacingBottom=-3;spacingLeft=-3;spacingRight=-3;verticalAlign=middle;html=1;labelBackgroundColor=none;rounded=0;" parent="1" edge="1">
          <mxGeometry relative="1" as="geometry">
            <mxPoint as="offset" />
            <Array as="points" />
            <mxPoint x="607" y="2082" as="sourcePoint" />
            <mxPoint x="608" y="2003" as="targetPoint" />
          </mxGeometry>
        </mxCell>
        <mxCell id="134" style="vsdxID=166;fillColor=#FFFFFF;gradientColor=none;shape=stencil(UzV2Ls5ILEhVNTIoLinKz04tz0wpyVA1dlE1MsrMy0gtyiwBslSNXVWNndPyi1LTi/JL81Ig/IJEkEoQKze/DGRCBUSfAUiHkUElhGdoAOG7QZTmZOYhKTWx1DNCUW2ETzXMKCSj9SyQlQMZCEdB/IMsh+4BoBDE88auAA==);strokeColor=#000000;strokeWidth=4;spacingTop=-3;spacingBottom=-3;spacingLeft=-3;spacingRight=-3;points=[];labelBackgroundColor=none;rounded=0;html=1;whiteSpace=wrap;" parent="1" vertex="1">
          <mxGeometry x="597" y="2046" width="20" height="20" as="geometry" />
        </mxCell>
        <mxCell id="176" style="vsdxID=167;edgeStyle=none;startArrow=none;endArrow=none;startSize=2;endSize=2;strokeWidth=4;strokeColor=#000000;spacingTop=-3;spacingBottom=-3;spacingLeft=-3;spacingRight=-3;verticalAlign=middle;html=1;labelBackgroundColor=none;rounded=0;" parent="1" edge="1">
          <mxGeometry relative="1" as="geometry">
            <mxPoint x="-1" as="offset" />
            <Array as="points" />
            <mxPoint x="400" y="2237" as="sourcePoint" />
            <mxPoint x="1833" y="2237" as="targetPoint" />
          </mxGeometry>
        </mxCell>
        <mxCell id="177" style="vsdxID=168;edgeStyle=none;startArrow=none;endArrow=none;startSize=2;endSize=2;strokeWidth=4;strokeColor=#000000;spacingTop=-3;spacingBottom=-3;spacingLeft=-3;spacingRight=-3;verticalAlign=middle;html=1;labelBackgroundColor=none;rounded=0;" parent="1" edge="1">
          <mxGeometry relative="1" as="geometry">
            <mxPoint x="-1" as="offset" />
            <Array as="points" />
            <mxPoint x="400" y="2277" as="sourcePoint" />
            <mxPoint x="1833" y="2273" as="targetPoint" />
          </mxGeometry>
        </mxCell>
        <mxCell id="178" style="vsdxID=169;edgeStyle=none;startArrow=none;endArrow=none;startSize=2;endSize=2;strokeWidth=4;strokeColor=#000000;spacingTop=-3;spacingBottom=-3;spacingLeft=-3;spacingRight=-3;verticalAlign=middle;html=1;labelBackgroundColor=none;rounded=0;" parent="1" edge="1">
          <mxGeometry relative="1" as="geometry">
            <mxPoint y="-1" as="offset" />
            <Array as="points" />
            <mxPoint x="608" y="2229" as="sourcePoint" />
            <mxPoint x="607" y="2167" as="targetPoint" />
          </mxGeometry>
        </mxCell>
        <mxCell id="135" style="vsdxID=170;fillColor=#FFFFFF;gradientColor=none;shape=stencil(UzV2Ls5ILEhVNTIoLinKz04tz0wpyVA1dlE1MsrMy0gtyiwBslSNXVWNndPyi1LTi/JL81Ig/IJEkEoQKze/DGRCBUSfAUiHkUElhGdoAOG7QZTmZOYhKTU11DOwQFVuaaFnaYxbB8w4mHoM5UAGwmEQPyHLoXsCKAQJAGNXAA==);strokeColor=#000000;strokeWidth=4;spacingTop=-3;spacingBottom=-3;spacingLeft=-3;spacingRight=-3;points=[];labelBackgroundColor=none;rounded=0;html=1;whiteSpace=wrap;" parent="1" vertex="1">
          <mxGeometry x="598" y="2194" width="20" height="20" as="geometry" />
        </mxCell>
        <mxCell id="179" style="vsdxID=171;edgeStyle=none;startArrow=none;endArrow=none;startSize=2;endSize=2;strokeWidth=4;strokeColor=#000000;spacingTop=-3;spacingBottom=-3;spacingLeft=-3;spacingRight=-3;verticalAlign=middle;html=1;labelBackgroundColor=none;rounded=0;" parent="1" edge="1">
          <mxGeometry relative="1" as="geometry">
            <mxPoint y="-1" as="offset" />
            <Array as="points" />
            <mxPoint x="1125" y="2231" as="sourcePoint" />
            <mxPoint x="1125" y="2167" as="targetPoint" />
          </mxGeometry>
        </mxCell>
        <mxCell id="136" style="vsdxID=172;fillColor=#FFFFFF;gradientColor=none;shape=stencil(dZBLDoMwDERP4y0ysbLIGug9kAhN1DZBIfxu30QWghaxm7HfWLaBqtG0gwaBYwz+pRfbRQNUgxDWGR1sTAqoAap6H/Qz+Ml17Ic2k1l9/JwnrJzDnBC4sSuR/YPRt3UnVGKB8hdXqlDyPrGP2/kLnsSxGN907v0fkUr8AGq+);strokeColor=#000000;strokeWidth=4;spacingTop=-3;spacingBottom=-3;spacingLeft=-3;spacingRight=-3;points=[];labelBackgroundColor=none;rounded=0;html=1;whiteSpace=wrap;" parent="1" vertex="1">
          <mxGeometry x="1115" y="2195" width="20" height="20" as="geometry" />
        </mxCell>
        <mxCell id="180" style="vsdxID=173;edgeStyle=none;startArrow=none;endArrow=none;startSize=2;endSize=2;strokeWidth=4;strokeColor=#000000;spacingTop=-3;spacingBottom=-3;spacingLeft=-3;spacingRight=-3;verticalAlign=middle;html=1;labelBackgroundColor=none;rounded=0;" parent="1" edge="1">
          <mxGeometry relative="1" as="geometry">
            <mxPoint as="offset" />
            <Array as="points" />
            <mxPoint x="1645" y="2230" as="sourcePoint" />
            <mxPoint x="1645" y="2172" as="targetPoint" />
          </mxGeometry>
        </mxCell>
        <mxCell id="137" style="vsdxID=174;fillColor=#FFFFFF;gradientColor=none;shape=stencil(UzV2Ls5ILEhVNTIoLinKz04tz0wpyVA1dlE1MsrMy0gtyiwBslSNXVWNndPyi1LTi/JL81Ig/IJEkEoQKze/DGRCBUSfAUiHkUElhGdoAOG7QZTmZOYhKTWx1LOwRFFuhE85zCwks/UMDZHVAxkIZ0F8hCyH7gWgEMT7xq4A);strokeColor=#000000;strokeWidth=4;spacingTop=-3;spacingBottom=-3;spacingLeft=-3;spacingRight=-3;points=[];labelBackgroundColor=none;rounded=0;html=1;whiteSpace=wrap;" parent="1" vertex="1">
          <mxGeometry x="1635" y="2194" width="20" height="20" as="geometry" />
        </mxCell>
        <mxCell id="181" style="vsdxID=175;edgeStyle=none;startArrow=none;endArrow=none;startSize=2;endSize=2;strokeWidth=4;strokeColor=#000000;spacingTop=-3;spacingBottom=-3;spacingLeft=-3;spacingRight=-3;verticalAlign=middle;html=1;labelBackgroundColor=none;rounded=0;" parent="1" edge="1">
          <mxGeometry relative="1" as="geometry">
            <mxPoint y="-1" as="offset" />
            <Array as="points" />
            <mxPoint x="1465" y="2378" as="sourcePoint" />
            <mxPoint x="1465" y="2274" as="targetPoint" />
          </mxGeometry>
        </mxCell>
        <mxCell id="138" style="vsdxID=176;fillColor=#FFFFFF;gradientColor=none;shape=stencil(UzV2Ls5ILEhVNTIoLinKz04tz0wpyVA1dlE1MsrMy0gtyiwBslSNXVWNndPyi1LTi/JL81Ig/IJEkEoQKze/DGRCBUSfAUiHkUElhGdoAOG7QZTmZOYhKTWx1LMwR1FuhE85zCwks/UMjZHVAxkIZ0F8hCyH7gWgEMT7xq4A);strokeColor=#000000;strokeWidth=4;spacingTop=-3;spacingBottom=-3;spacingLeft=-3;spacingRight=-3;points=[];labelBackgroundColor=none;rounded=0;html=1;whiteSpace=wrap;" parent="1" vertex="1">
          <mxGeometry x="1455" y="2343" width="20" height="20" as="geometry" />
        </mxCell>
        <mxCell id="182" style="vsdxID=177;edgeStyle=none;startArrow=none;endArrow=none;startSize=2;endSize=2;strokeWidth=4;strokeColor=#000000;spacingTop=-3;spacingBottom=-3;spacingLeft=-3;spacingRight=-3;verticalAlign=middle;html=1;labelBackgroundColor=none;rounded=0;" parent="1" edge="1">
          <mxGeometry relative="1" as="geometry">
            <mxPoint as="offset" />
            <Array as="points" />
            <mxPoint x="1465" y="2584" as="sourcePoint" />
            <mxPoint x="1465" y="2495" as="targetPoint" />
          </mxGeometry>
        </mxCell>
        <mxCell id="139" style="vsdxID=178;fillColor=#FFFFFF;gradientColor=none;shape=stencil(UzV2Ls5ILEhVNTIoLinKz04tz0wpyVA1dlE1MsrMy0gtyiwBslSNXVWNndPyi1LTi/JL81Ig/IJEkEoQKze/DGRCBUSfAUiHkUElhGdoAOG7QZTmZOYhKTU10DMwQVVuaalnaYZbB8w4mHoM5UAGwmEQPyHLoXsCKAQJAGNXAA==);strokeColor=#000000;strokeWidth=4;spacingTop=-3;spacingBottom=-3;spacingLeft=-3;spacingRight=-3;points=[];labelBackgroundColor=none;rounded=0;html=1;whiteSpace=wrap;" parent="1" vertex="1">
          <mxGeometry x="1455" y="2549" width="20" height="20" as="geometry" />
        </mxCell>
        <mxCell id="141" style="vsdxID=180;fillColor=#FFFFFF;gradientColor=none;shape=stencil(UzV2Ls5ILEhVNTIoLinKz04tz0wpyVA1dlE1MsrMy0gtyiwBslSNXVWNndPyi1LTi/JL81Ig/IJEkEoQKze/DGRCBUSfAUiHkUElhGdoAOG7QZTmZOYhKdWFycJVm+JRjarUCNVgIAPhIIhfkOXQHQ8Ugnjc2BUA);strokeColor=#000000;strokeWidth=4;spacingTop=-3;spacingBottom=-3;spacingLeft=-3;spacingRight=-3;points=[];labelBackgroundColor=none;rounded=0;html=1;whiteSpace=wrap;" parent="1" vertex="1">
          <mxGeometry x="1577" y="2594" width="20" height="20" as="geometry" />
        </mxCell>
        <mxCell id="22" style="vsdxID=24;fillColor=#FFFFFF;gradientColor=none;shape=stencil(nZBLDoAgDERP0z3SIyDew0QUooIB/N1eSGM0Lli4m+m8tskAiqDbRQFnIXo3qt10UQPWwLmxWnkTkwKUgKJ3Xg3erbYjv7SZzGp2W75w0B7LG5yd5CpGviF0MvaF3uEvuID+BIvvi2gSTx3U5Dv7VpdGVDvKCw==);strokeColor=#000000;strokeWidth=4;spacingTop=-3;spacingBottom=-3;spacingLeft=-3;spacingRight=-3;points=[];labelBackgroundColor=none;rounded=0;html=1;whiteSpace=wrap;" parent="1" vertex="1">
          <mxGeometry x="988" y="1017" width="272" height="108" as="geometry" />
        </mxCell>
        <mxCell id="23" value="&lt;div style=&quot;font-size: 1px&quot;&gt;&lt;font style=&quot;font-size:25.15px;font-family:Arial;color:#000000;direction:ltr;letter-spacing:0px;line-height:120%;opacity:1&quot;&gt;Estimating amount&lt;br/&gt;&lt;/font&gt;&lt;/div&gt;" style="verticalAlign=middle;align=center;vsdxID=25;fillColor=none;gradientColor=none;strokeColor=none;spacingTop=-3;spacingBottom=-3;spacingLeft=-3;spacingRight=-3;points=[];labelBackgroundColor=none;rounded=0;html=1;whiteSpace=wrap;" parent="1" vertex="1">
          <mxGeometry x="908" y="1035" width="427" height="25" as="geometry" />
        </mxCell>
        <mxCell id="24" value="&lt;div style=&quot;font-size: 1px&quot;&gt;&lt;font style=&quot;font-size:25.15px;font-family:Arial;color:#000000;direction:ltr;letter-spacing:0px;line-height:120%;opacity:1&quot;&gt;of energy&lt;br/&gt;&lt;/font&gt;&lt;/div&gt;" style="verticalAlign=middle;align=center;vsdxID=26;fillColor=none;gradientColor=none;strokeColor=none;spacingTop=-3;spacingBottom=-3;spacingLeft=-3;spacingRight=-3;points=[];labelBackgroundColor=none;rounded=0;html=1;whiteSpace=wrap;" parent="1" vertex="1">
          <mxGeometry x="983" y="1081" width="226" height="19" as="geometry" />
        </mxCell>
        <mxCell id="16" value="&lt;div style=&quot;font-size: 1px&quot;&gt;&lt;font style=&quot;font-size:25.15px;font-family:Arial;color:#000000;direction:ltr;letter-spacing:0px;line-height:120%;opacity:1&quot;&gt;Composition data&lt;br/&gt;&lt;/font&gt;&lt;/div&gt;" style="verticalAlign=middle;align=center;vsdxID=17;fillColor=none;gradientColor=none;strokeColor=none;spacingTop=-3;spacingBottom=-3;spacingLeft=-3;spacingRight=-3;points=[];labelBackgroundColor=none;rounded=0;html=1;whiteSpace=wrap;" parent="1" vertex="1">
          <mxGeometry x="1298" y="993" width="402" height="25" as="geometry" />
        </mxCell>
        <mxCell id="15" style="vsdxID=16;fillColor=#FFFFFF;gradientColor=none;shape=stencil(nZTbDoMgDIafhtsGKXK43uE9THTTbFOj7vT2kzAzBzLD7lr6fxD6Uwhu+jJrC8JoP3TNqbhX+VAS3BLGqrosumoYI4I7gptD0xXHrrnWuc3bzChNdGluZoeH5aghGH3aLKE231vpuapn0qn4n1gpUDqs1ww0OgQHimFCCUiFQ9BpaZmgIBxCKuAyTMjUkUuQKiwXGpBHHSAQOI+6RCqByqhGpXFOcN8JjfDuxCKBvhNagsmDhO+EHnuXhAn27QT7+fZ8G1Z2T3wbVm7gu7DSpDgTfk7aGHzG2f4E85o7+uOS/TZw9wI=);strokeColor=#000000;strokeWidth=4;spacingTop=-3;spacingBottom=-3;spacingLeft=-3;spacingRight=-3;points=[];labelBackgroundColor=none;rounded=0;html=1;whiteSpace=wrap;" parent="1" vertex="1">
          <mxGeometry x="1355" y="843" width="352" height="145" as="geometry" />
        </mxCell>
        <mxCell id="L_2v3AOTJTyac5hATxIp-190" style="vsdxID=28;fillColor=#FFFFFF;gradientColor=none;shape=stencil(lVXbboMwDP2aPMZyYhKS5677j0plA22DitJd/n6gqFsVIhvekuJTx+cc24oO1/Z0aZTF6zQOb81Xd55aRU/K2q5vm7Gb5pOio6LDyzA2r+Nw68/pfjktkcvpY/hc/uE74XBBWPxJN4Pp/pxC37v+IdR78PX28BoBKQs3gJZBEBiXIQgiMQgHMWaIAK5iEAGqLIepwDOIgFBlOawF5BD2XuYfgpB91YzI66AIkeEqEFDGrmPEKCTwsz5hVxE+QuV3EVXXEBlEQYzggDjEWvBo2FcVTBU9YL3LuDFAZLhad4blOgO3h2q607H1LdqvVBDq1RHI7uJUGwN1lkQQThuCkGUR3KGNWxUvWFAbv2oLwecLJB9rXCeVUgi9WipEGAgluoSpUxJFGG0F5YXxWXCXMKILDhbWALuS5sP/Kktb8PFbvvbmn9LKpOMv);strokeColor=#000000;strokeWidth=4;spacingTop=-3;spacingBottom=-3;spacingLeft=-3;spacingRight=-3;points=[];labelBackgroundColor=none;rounded=0;html=1;whiteSpace=wrap;" vertex="1" parent="1">
          <mxGeometry x="746" y="324" width="174" height="62" as="geometry" />
        </mxCell>
        <mxCell id="L_2v3AOTJTyac5hATxIp-193" value="&lt;div style=&quot;font-size: 1px&quot;&gt;&lt;font style=&quot;font-size:25.15px;font-family:Arial;color:#000000;direction:ltr;letter-spacing:0px;line-height:120%;opacity:1&quot;&gt;Start&lt;br&gt;&lt;/font&gt;&lt;/div&gt;" style="verticalAlign=middle;align=center;vsdxID=10;fillColor=none;gradientColor=none;strokeColor=none;spacingTop=-3;spacingBottom=-3;spacingLeft=-3;spacingRight=-3;points=[];labelBackgroundColor=none;rounded=0;html=1;whiteSpace=wrap;" vertex="1" parent="1">
          <mxGeometry x="740" y="400" width="129.5" height="25" as="geometry" />
        </mxCell>
        <mxCell id="L_2v3AOTJTyac5hATxIp-194" value="" style="endArrow=classic;html=1;rounded=0;exitX=0.313;exitY=2.019;exitDx=0;exitDy=0;exitPerimeter=0;entryX=0.375;entryY=0.988;entryDx=0;entryDy=0;entryPerimeter=0;" edge="1" parent="1" source="L_2v3AOTJTyac5hATxIp-190" target="9">
          <mxGeometry width="50" height="50" relative="1" as="geometry">
            <mxPoint x="570" y="550" as="sourcePoint" />
            <mxPoint x="620" y="500" as="targetPoint" />
          </mxGeometry>
        </mxCell>
      </root>
    </mxGraphModel>
  </diagram>
</mxfile>
